<svg width="512" height="512" viewBox="0 0 512 512" fill="none" xmlns="http://www.w3.org/2000/svg">
<rect width="512" height="512" fill="#8EA8C4" fill-opacity="0.25"/>
<rect y="131" width="512" height="250" rx="120" fill="#003C7D" fill-opacity="0.25"/>
<path fill-rule="evenodd" clip-rule="evenodd" d="M400.282 169.519C410.98 162.62 415.491 159.712 415.725 160.022C415.895 160.249 413.793 162.186 410.158 165.535C402.015 173.037 386.182 187.626 370.979 205.943C334.903 249.41 294.336 335 294.336 335H266.756L266.557 335.115L266.491 335H266.336V334.733L214.345 244.907C211.579 240.127 213.216 234.018 218.002 231.262L237.066 220.282C241.852 217.526 247.975 219.167 250.741 223.947L282.167 278.242C304.167 249.103 338.907 208.759 378.669 183.394C387.674 177.649 394.793 173.059 400.282 169.519Z" fill="#002F59" style="mix-blend-mode:darken"/>
<circle cx="129" cy="255" r="80" fill="#002F59" style="mix-blend-mode:darken"/>
<circle cx="129" cy="255" r="52" fill="#BFCEDF"/>
<path fill-rule="evenodd" clip-rule="evenodd" d="M140.75 217H118.25V243.25H92V265.75H118.25V292H140.75V265.75H167V243.25H140.75V217Z" fill="#E4000F"/>
<path fill-rule="evenodd" clip-rule="evenodd" d="M409.606 224H365V243.289V248.111V279.456V289.1V303.567V334.911H389.111V303.567H409.581C409.589 303.567 409.597 303.567 409.606 303.567C409.614 303.567 409.622 303.567 409.631 303.567H410.811V303.549C410.892 303.547 410.973 303.544 411.053 303.541L431.306 334.911L460.239 334.911L434.278 294.995C443.483 287.708 449.389 276.435 449.389 263.783C449.389 242.215 432.225 224.655 410.811 224.018V224H409.606Z" fill="#002F59" style="mix-blend-mode:darken"/>
<path fill-rule="evenodd" clip-rule="evenodd" d="M410.811 248.111H389.111V279.456H410.811V279.41C411.209 279.44 411.611 279.456 412.017 279.456C420.672 279.456 427.689 272.439 427.689 263.783C427.689 255.128 420.672 248.111 412.017 248.111C411.611 248.111 411.209 248.127 410.811 248.157V248.111Z" fill="#BFCEDF"/>
</svg>
