<svg width="512" height="250" viewBox="0 0 512 250" fill="none" xmlns="http://www.w3.org/2000/svg">
<rect width="512" height="250" rx="120" fill="#003C7D" fill-opacity="0.25"/>
<path fill-rule="evenodd" clip-rule="evenodd" d="M400.282 38.5192C410.98 31.6205 415.491 28.7118 415.725 29.0224C415.895 29.2488 413.793 31.1858 410.158 34.5348C402.015 42.0373 386.182 56.6257 370.979 74.9431C334.903 118.41 294.336 204 294.336 204H266.756L266.557 204.115L266.491 204H266.336V203.733L214.345 113.907C211.579 109.127 213.216 103.018 218.002 100.262L237.066 89.2823C241.852 86.5261 247.975 88.1666 250.741 92.9465L282.167 147.242C304.167 118.103 338.907 77.7591 378.669 52.3942C387.674 46.6493 394.793 42.059 400.282 38.5192Z" fill="#002F59" style="mix-blend-mode:darken"/>
<circle cx="129" cy="124" r="80" fill="#002F59" style="mix-blend-mode:darken"/>
<circle cx="129" cy="124" r="52" fill="#BFCEDF"/>
<path fill-rule="evenodd" clip-rule="evenodd" d="M140.75 86H118.25V112.25H92V134.75H118.25V161H140.75V134.75H167V112.25H140.75V86Z" fill="#E4000F"/>
<path fill-rule="evenodd" clip-rule="evenodd" d="M409.606 93H365V112.289V117.111V148.456V158.1V172.567V203.911H389.111V172.567H409.581C409.589 172.567 409.597 172.567 409.606 172.567C409.614 172.567 409.622 172.567 409.631 172.567H410.811V172.549C410.892 172.547 410.973 172.544 411.053 172.541L431.306 203.911L460.239 203.911L434.278 163.995C443.483 156.708 449.389 145.435 449.389 132.783C449.389 111.215 432.225 93.6552 410.811 93.0179V93H409.606Z" fill="#002F59" style="mix-blend-mode:darken"/>
<path fill-rule="evenodd" clip-rule="evenodd" d="M410.811 117.111H389.111V148.456H410.811V148.41C411.209 148.44 411.611 148.456 412.017 148.456C420.672 148.456 427.689 141.439 427.689 132.783C427.689 124.128 420.672 117.111 412.017 117.111C411.611 117.111 411.209 117.127 410.811 117.157V117.111Z" fill="#BFCEDF"/>
</svg>
