<svg width="512" height="298" viewBox="0 0 512 298" fill="none" xmlns="http://www.w3.org/2000/svg">
<rect width="512" height="250" rx="120" fill="#003C7D" fill-opacity="0.25"/>
<path fill-rule="evenodd" clip-rule="evenodd" d="M400.282 38.5192C410.98 31.6205 415.491 28.7118 415.725 29.0224C415.895 29.2488 413.793 31.1858 410.158 34.5348C402.015 42.0373 386.182 56.6257 370.979 74.9431C334.903 118.41 294.336 204 294.336 204H266.756L266.557 204.115L266.491 204H266.336V203.733L214.345 113.907C211.579 109.127 213.216 103.018 218.002 100.262L237.066 89.2823C241.852 86.5261 247.975 88.1666 250.741 92.9465L282.167 147.242C304.167 118.103 338.907 77.7591 378.669 52.3942C387.674 46.6493 394.793 42.059 400.282 38.5192Z" fill="#002F59" style="mix-blend-mode:darken"/>
<circle cx="129" cy="124" r="80" fill="#002F59" style="mix-blend-mode:darken"/>
<circle cx="129" cy="124" r="52" fill="#BFCEDF"/>
<path fill-rule="evenodd" clip-rule="evenodd" d="M140.75 91C140.75 88.2386 138.511 86 135.75 86H123.25C120.489 86 118.25 88.2386 118.25 91V107.25C118.25 110.011 116.011 112.25 113.25 112.25H97C94.2386 112.25 92 114.489 92 117.25V129.75C92 132.511 94.2386 134.75 97 134.75H113.25C116.011 134.75 118.25 136.989 118.25 139.75V156C118.25 158.761 120.489 161 123.25 161H135.75C138.511 161 140.75 158.761 140.75 156V139.75C140.75 136.989 142.989 134.75 145.75 134.75H162C164.761 134.75 167 132.511 167 129.75V117.25C167 114.489 164.761 112.25 162 112.25H145.75C142.989 112.25 140.75 110.011 140.75 107.25V91Z" fill="#E4000F"/>
<path fill-rule="evenodd" clip-rule="evenodd" d="M409.606 93H365V112.289V117.111V148.456V158.1V172.567V203.911H389.111V172.567H409.581C409.589 172.567 409.597 172.567 409.606 172.567C409.614 172.567 409.622 172.567 409.631 172.567H410.811V172.549C410.892 172.547 410.973 172.544 411.053 172.541L431.306 203.911L460.239 203.911L434.278 163.995C443.483 156.708 449.389 145.435 449.389 132.783C449.389 111.215 432.225 93.6552 410.811 93.0179V93H409.606Z" fill="#002F59" style="mix-blend-mode:darken"/>
<path fill-rule="evenodd" clip-rule="evenodd" d="M410.811 117.111H389.111V148.456H410.811V148.41C411.209 148.44 411.611 148.456 412.017 148.456C420.672 148.456 427.689 141.439 427.689 132.783C427.689 124.128 420.672 117.111 412.017 117.111C411.611 117.111 411.209 117.127 410.811 117.157V117.111Z" fill="#BFCEDF"/>
<path d="M15.4946 281.932C21.0046 281.932 25.5266 277.448 25.5266 271.976C25.5266 266.542 21.0046 262.02 15.4946 262.02C9.98459 262.02 5.46259 266.542 5.46259 271.976C5.46259 277.448 9.98459 281.932 15.4946 281.932ZM15.4946 266.922C18.2686 266.922 20.4726 269.164 20.4726 271.976C20.4726 274.826 18.2686 277.03 15.4946 277.03C12.7586 277.03 10.5166 274.826 10.5166 271.976C10.5166 269.164 12.7586 266.922 15.4946 266.922ZM24.3486 284.402C24.3486 284.25 24.1966 284.098 23.9686 284.098H6.83059C6.60259 284.098 6.45059 284.25 6.45059 284.402V288.696C6.45059 288.848 6.60259 289 6.83059 289H23.9686C24.1966 289 24.3486 288.848 24.3486 288.696V284.402ZM39.575 262.4H30.911C30.683 262.4 30.531 262.552 30.531 262.704V267.074C31.823 269.088 33.115 271.216 34.445 273.23H30.911C30.683 273.23 30.531 273.382 30.531 273.534V288.696C30.531 288.848 30.683 289 30.911 289H35.243C35.471 289 35.623 288.848 35.623 288.696V278.17H39.575C39.575 278.17 48.581 278.17 48.581 270.266C48.581 262.4 39.575 262.4 39.575 262.4ZM39.575 267.34C40.411 267.34 43.527 267.34 43.527 270.266C43.527 272.432 41.285 273.192 39.917 273.192L36.231 267.34H39.575ZM70.0513 267.226C70.2793 267.226 70.4313 267.074 70.4313 266.922V262.704C70.4313 262.552 70.2793 262.4 70.0513 262.4H53.0653C52.8373 262.4 52.6853 262.552 52.6853 262.704V288.696C52.6853 288.848 52.8373 289 53.0653 289H70.3933C70.6213 289 70.7733 288.848 70.7733 288.696V284.364C70.7733 284.212 70.6213 284.06 70.3933 284.06H57.7773V278.056H68.2273C68.4173 278.056 68.5693 277.904 68.5693 277.752V273.534C68.5693 273.382 68.4173 273.23 68.2273 273.23H57.7773V267.226H70.0513ZM97.4451 262.704C97.4451 262.552 97.2931 262.4 97.0651 262.4H92.7712C92.5431 262.4 92.3911 262.552 92.3911 262.704V280.032L80.1171 262.514C80.0791 262.438 79.8891 262.4 79.8131 262.4H75.4051C75.2151 262.4 75.0631 262.552 75.0631 262.704V288.696C75.0631 288.848 75.2151 289 75.4051 289H79.7751C80.0031 289 80.1551 288.848 80.1551 288.696V271.368L92.3911 288.886C92.4292 288.962 92.6191 289 92.6951 289H97.0651C97.2931 289 97.4451 288.848 97.4451 288.696V262.704ZM114.162 262.4C113.896 262.4 113.706 262.59 113.82 262.818L124.232 289.874C124.346 290.14 124.802 290.14 124.916 289.874L135.252 262.818C135.366 262.59 135.176 262.4 134.948 262.4H114.162ZM120.698 267.112H128.412L124.574 277.752L120.698 267.112ZM155.551 267.226C155.779 267.226 155.931 267.074 155.931 266.922V262.704C155.931 262.552 155.779 262.4 155.551 262.4H138.565C138.337 262.4 138.185 262.552 138.185 262.704V288.696C138.185 288.848 138.337 289 138.565 289H155.893C156.121 289 156.273 288.848 156.273 288.696V284.364C156.273 284.212 156.121 284.06 155.893 284.06H143.277V278.056H153.727C153.917 278.056 154.069 277.904 154.069 277.752V273.534C154.069 273.382 153.917 273.23 153.727 273.23H143.277V267.226H155.551ZM182.945 262.704C182.945 262.552 182.793 262.4 182.565 262.4H178.271C178.043 262.4 177.891 262.552 177.891 262.704V280.032L165.617 262.514C165.579 262.438 165.389 262.4 165.313 262.4H160.905C160.715 262.4 160.563 262.552 160.563 262.704V288.696C160.563 288.848 160.715 289 160.905 289H165.275C165.503 289 165.655 288.848 165.655 288.696V271.368L177.891 288.886C177.929 288.962 178.119 289 178.195 289H182.565C182.793 289 182.945 288.848 182.945 288.696V262.704ZM202.484 262.704C202.484 262.552 202.332 262.4 202.104 262.4H186.866C186.638 262.4 186.486 262.552 186.486 262.704V266.656C186.486 266.808 186.638 266.96 186.866 266.96H191.958V288.696C191.958 288.848 192.11 289 192.338 289H196.632C196.86 289 197.012 288.848 197.012 288.696V266.96H202.104C202.332 266.96 202.484 266.808 202.484 266.656V262.704ZM214.653 266.96C214.881 266.96 215.033 266.808 215.033 266.656V262.704C215.033 262.552 214.881 262.4 214.653 262.4H204.507C204.279 262.4 204.127 262.552 204.127 262.704V266.656C204.127 266.808 204.279 266.96 204.507 266.96H207.053V284.44H204.355C204.127 284.44 203.975 284.592 203.975 284.744V288.696C203.975 288.848 204.127 289 204.355 289H214.805C215.033 289 215.185 288.848 215.185 288.696V284.744C215.185 284.592 215.033 284.44 214.805 284.44H212.145V266.96H214.653ZM224.101 284.06V262.704C224.101 262.552 223.949 262.4 223.759 262.4H219.389C219.161 262.4 219.009 262.552 219.009 262.704V288.696C219.009 288.848 219.161 289 219.389 289H233.373C233.601 289 233.753 288.848 233.753 288.696V284.364C233.753 284.212 233.601 284.06 233.373 284.06H224.101ZM251.612 288.81C251.65 288.924 251.802 289 251.916 289H256.628C256.894 289 257.046 288.81 256.932 288.582L246.558 261.83C246.444 261.564 245.988 261.564 245.874 261.83L235.5 288.582C235.386 288.81 235.538 289 235.842 289H240.516C240.668 289 240.82 288.924 240.858 288.81L241.884 285.998H250.51L251.612 288.81ZM246.216 273.534L248.876 281.514H243.518L246.216 273.534ZM273.512 262.704C273.512 262.552 273.36 262.4 273.132 262.4H257.894C257.666 262.4 257.514 262.552 257.514 262.704V266.656C257.514 266.808 257.666 266.96 257.894 266.96H262.986V288.696C262.986 288.848 263.138 289 263.366 289H267.66C267.888 289 268.04 288.848 268.04 288.696V266.96H273.132C273.36 266.96 273.512 266.808 273.512 266.656V262.704ZM285.985 281.932C291.495 281.932 296.017 277.448 296.017 271.976C296.017 266.542 291.495 262.02 285.985 262.02C280.475 262.02 275.953 266.542 275.953 271.976C275.953 277.448 280.475 281.932 285.985 281.932ZM285.985 266.922C288.759 266.922 290.963 269.164 290.963 271.976C290.963 274.826 288.759 277.03 285.985 277.03C283.249 277.03 281.007 274.826 281.007 271.976C281.007 269.164 283.249 266.922 285.985 266.922ZM294.839 284.402C294.839 284.25 294.687 284.098 294.459 284.098H277.321C277.093 284.098 276.941 284.25 276.941 284.402V288.696C276.941 288.848 277.093 289 277.321 289H294.459C294.687 289 294.839 288.848 294.839 288.696V284.402ZM320.135 289C320.401 289 320.553 288.772 320.401 288.544L313.561 277.6C316.145 276.802 319.147 274.94 319.147 270.266C319.147 262.4 310.103 262.4 310.103 262.4H301.439C301.211 262.4 301.059 262.552 301.059 262.704V267.074C302.351 269.088 303.681 271.216 304.973 273.23H301.439C301.211 273.23 301.059 273.382 301.059 273.534V288.696C301.059 288.848 301.211 289 301.439 289H305.771C305.999 289 306.151 288.848 306.151 288.696V278.17H308.013L314.701 288.848C314.739 288.924 314.929 289 315.043 289H320.135ZM306.911 267.34H310.103C310.977 267.34 314.055 267.34 314.055 270.266C314.055 272.546 312.041 273.154 310.597 273.192L306.911 267.34ZM356.502 289C356.768 289 356.92 288.772 356.768 288.544L349.928 277.6C352.512 276.802 355.514 274.94 355.514 270.266C355.514 262.4 346.47 262.4 346.47 262.4H337.806C337.578 262.4 337.426 262.552 337.426 262.704V267.074C338.718 269.088 340.048 271.216 341.34 273.23H337.806C337.578 273.23 337.426 273.382 337.426 273.534V288.696C337.426 288.848 337.578 289 337.806 289H342.138C342.366 289 342.518 288.848 342.518 288.696V278.17H344.38L351.068 288.848C351.106 288.924 351.296 289 351.41 289H356.502ZM343.278 267.34H346.47C347.344 267.34 350.422 267.34 350.422 270.266C350.422 272.546 348.408 273.154 346.964 273.192L343.278 267.34ZM378.022 267.226C378.25 267.226 378.402 267.074 378.402 266.922V262.704C378.402 262.552 378.25 262.4 378.022 262.4H361.036C360.808 262.4 360.656 262.552 360.656 262.704V288.696C360.656 288.848 360.808 289 361.036 289H378.364C378.592 289 378.744 288.848 378.744 288.696V284.364C378.744 284.212 378.592 284.06 378.364 284.06H365.748V278.056H376.198C376.388 278.056 376.54 277.904 376.54 277.752V273.534C376.54 273.382 376.388 273.23 376.198 273.23H365.748V267.226H378.022ZM397.436 273.61C397.208 273.61 397.056 273.762 397.056 273.914V277.942C397.056 278.094 397.208 278.208 397.436 278.208H401.73V281.666C400.172 283.376 398.044 284.44 395.612 284.44C391.052 284.44 387.328 281.818 387.328 275.7C387.328 270.19 391.052 266.96 395.612 266.96C397.892 266.96 399.982 267.91 401.502 269.43C401.616 269.544 401.844 269.544 401.996 269.43L405.036 266.39C405.188 266.276 405.188 266.048 405.036 265.934C402.68 263.502 399.336 262.02 395.612 262.02C388.24 262.02 382.236 267.796 382.236 275.7C382.236 284.402 387.86 289.38 395.042 289.38C398.006 289.38 400.324 288.468 402.148 286.378L402.3 288.848C402.3 289 402.49 289.114 402.68 289.114H406.48C406.67 289.114 406.822 288.962 406.822 288.81V273.914C406.822 273.762 406.67 273.61 406.48 273.61H397.436ZM421.278 266.96C421.506 266.96 421.658 266.808 421.658 266.656V262.704C421.658 262.552 421.506 262.4 421.278 262.4H411.132C410.904 262.4 410.752 262.552 410.752 262.704V266.656C410.752 266.808 410.904 266.96 411.132 266.96H413.678V284.44H410.98C410.752 284.44 410.6 284.592 410.6 284.744V288.696C410.6 288.848 410.752 289 410.98 289H421.43C421.658 289 421.81 288.848 421.81 288.696V284.744C421.81 284.592 421.658 284.44 421.43 284.44H418.77V266.96H421.278ZM433.234 289.38C437.604 289.38 441.708 286.53 441.708 281.4C441.708 278.208 440.15 275.51 437.262 274.18C435.324 273.268 433.424 273.268 433.234 273.268C431.486 273.268 429.814 272.242 429.814 270.266C429.814 268.062 431.372 266.96 433.234 266.96C435.02 266.96 436.502 267.872 436.578 269.81C436.578 269.924 436.768 270.076 436.958 270.076H441.252C441.48 270.076 441.632 269.924 441.632 269.81C441.556 265.174 437.908 262.02 433.234 262.02C428.864 262.02 424.722 265.136 424.722 270.266C424.722 273.458 426.318 275.852 429.168 277.182C431.144 278.094 433.006 278.094 433.234 278.094C434.792 278.17 436.654 279.386 436.654 281.4C436.654 283.224 435.058 284.44 433.234 284.44C431.486 284.44 429.89 283.452 429.814 281.514C429.814 281.362 429.624 281.21 429.434 281.21H425.102C424.874 281.21 424.722 281.362 424.722 281.514C424.798 286.53 428.522 289.266 433.234 289.38ZM460.06 262.704C460.06 262.552 459.908 262.4 459.68 262.4H444.442C444.214 262.4 444.062 262.552 444.062 262.704V266.656C444.062 266.808 444.214 266.96 444.442 266.96H449.534V288.696C449.534 288.848 449.686 289 449.914 289H454.208C454.436 289 454.588 288.848 454.588 288.696V266.96H459.68C459.908 266.96 460.06 266.808 460.06 266.656V262.704ZM482.452 289C482.718 289 482.87 288.772 482.718 288.544L475.878 277.6C478.462 276.802 481.464 274.94 481.464 270.266C481.464 262.4 472.42 262.4 472.42 262.4H463.756C463.528 262.4 463.376 262.552 463.376 262.704V267.074C464.668 269.088 465.998 271.216 467.29 273.23H463.756C463.528 273.23 463.376 273.382 463.376 273.534V288.696C463.376 288.848 463.528 289 463.756 289H468.088C468.316 289 468.468 288.848 468.468 288.696V278.17H470.33L477.018 288.848C477.056 288.924 477.246 289 477.36 289H482.452ZM469.228 267.34H472.42C473.294 267.34 476.372 267.34 476.372 270.266C476.372 272.546 474.358 273.154 472.914 273.192L469.228 267.34ZM502.603 262.4C502.527 262.4 502.375 262.438 502.337 262.514L495.991 271.368L489.645 262.514C489.607 262.438 489.417 262.4 489.341 262.4H484.059C483.717 262.4 483.565 262.666 483.755 262.894C486.947 267.416 490.253 271.938 493.445 276.498V288.696C493.445 288.848 493.597 289 493.825 289H498.157C498.385 289 498.537 288.848 498.537 288.696V276.498L508.227 262.894C508.417 262.666 508.265 262.4 507.923 262.4H502.603Z" fill="#13436D"/>
</svg>
