<svg width="512" height="303" viewBox="0 0 512 303" fill="none" xmlns="http://www.w3.org/2000/svg">
<path d="M2.66484 278.745C2.66484 280.487 2.99141 282.126 3.64453 283.661C4.30911 285.185 5.21432 286.52 6.36016 287.666C7.50599 288.8 8.84089 289.699 10.3648 290.364C11.9003 291.017 13.5388 291.344 15.2805 291.344C17.0221 291.344 18.6607 291.017 20.1961 290.364C21.7315 289.699 23.0664 288.8 24.2008 287.666C25.3466 286.52 26.2461 285.185 26.8992 283.661C27.5638 282.126 27.8961 280.487 27.8961 278.745C27.8961 277.004 27.5638 275.365 26.8992 273.83C26.2461 272.294 25.3466 270.959 24.2008 269.825C23.0664 268.679 21.7315 267.78 20.1961 267.127C18.6607 266.462 17.0221 266.13 15.2805 266.13C13.5388 266.13 11.9003 266.462 10.3648 267.127C8.84089 267.78 7.50599 268.679 6.36016 269.825C5.21432 270.959 4.30911 272.294 3.64453 273.83C2.99141 275.365 2.66484 277.004 2.66484 278.745ZM9.00703 278.745C9.00703 277.829 9.16172 276.975 9.47109 276.184C9.79193 275.394 10.2273 274.701 10.7773 274.105C11.3388 273.509 12.0034 273.045 12.7711 272.712C13.5388 272.369 14.3753 272.197 15.2805 272.197C16.1971 272.197 17.0336 272.369 17.7898 272.712C18.5576 273.045 19.2221 273.509 19.7836 274.105C20.3451 274.701 20.7805 275.394 21.0898 276.184C21.3992 276.975 21.5539 277.829 21.5539 278.745C21.5539 279.651 21.3992 280.504 21.0898 281.306C20.7805 282.097 20.3451 282.79 19.7836 283.386C19.2221 283.97 18.5576 284.434 17.7898 284.778C17.0336 285.122 16.1971 285.294 15.2805 285.294C14.3753 285.294 13.5388 285.122 12.7711 284.778C12.0034 284.434 11.3388 283.97 10.7773 283.386C10.2273 282.79 9.79193 282.097 9.47109 281.306C9.16172 280.504 9.00703 279.651 9.00703 278.745ZM41.5408 271.733C41.9419 271.733 42.2971 271.813 42.6064 271.973C42.9158 272.134 43.1794 272.346 43.3971 272.609C43.6148 272.873 43.7809 273.171 43.8955 273.503C44.0101 273.824 44.0674 274.151 44.0674 274.483C44.0674 274.827 44.0101 275.165 43.8955 275.497C43.7809 275.829 43.6148 276.127 43.3971 276.391C43.1908 276.643 42.9273 276.849 42.6064 277.009C42.2971 277.158 41.9419 277.233 41.5408 277.233H37.983V271.733H41.5408ZM31.6236 290.278C31.6236 290.759 31.8585 291 32.3283 291H37.2268C37.7309 291 37.983 290.759 37.983 290.278V282.441H43.0361C44.1591 282.441 45.1788 282.217 46.0955 281.77C47.0236 281.312 47.8143 280.71 48.4674 279.966C49.132 279.221 49.6419 278.379 49.9971 277.439C50.3637 276.488 50.5471 275.514 50.5471 274.517C50.5471 273.509 50.3637 272.523 49.9971 271.561C49.6304 270.598 49.1091 269.745 48.433 269C47.7684 268.244 46.9663 267.636 46.0268 267.178C45.0872 266.72 44.0502 266.491 42.9158 266.491H32.3283C32.1335 266.491 31.9674 266.554 31.8299 266.68C31.6924 266.806 31.6236 266.989 31.6236 267.23V290.278ZM54.0727 290.278C54.0727 290.759 54.3133 291 54.7945 291H71.518C72.0107 291 72.257 290.759 72.257 290.278V286.067C72.257 285.586 72.0107 285.345 71.518 285.345H60.4492V281.134H68.6133C69.1518 281.134 69.4211 280.894 69.4211 280.412V277.009C69.4211 276.746 69.3466 276.557 69.1977 276.442C69.0602 276.316 68.8654 276.253 68.6133 276.253H60.4492V272.18H71.2086C71.6898 272.18 71.9305 271.939 71.9305 271.458V267.23C71.9305 266.737 71.6898 266.491 71.2086 266.491H54.7945C54.3133 266.491 54.0727 266.737 54.0727 267.23V290.278ZM91.2084 290.278C91.5063 290.759 91.9016 291 92.3943 291H97.224C97.7626 291 98.0318 290.759 98.0318 290.278V267.23C98.0318 267.012 97.9402 266.834 97.7568 266.697C97.5735 266.559 97.3959 266.491 97.224 266.491H92.635C92.3829 266.491 92.1938 266.565 92.0678 266.714C91.9532 266.863 91.8959 267.035 91.8959 267.23V280.602L83.6287 267.23C83.4798 267.001 83.3079 266.823 83.1131 266.697C82.9183 266.559 82.7006 266.491 82.46 266.491H77.1146C76.874 266.491 76.6907 266.565 76.5646 266.714C76.4501 266.863 76.3928 267.035 76.3928 267.23V290.278C76.3928 290.759 76.6334 291 77.1146 291H81.7209C82.2594 291 82.5287 290.759 82.5287 290.278V275.995L91.2084 290.278ZM134.338 267.23C134.533 266.737 134.378 266.491 133.874 266.491H128.546C128.065 266.491 127.738 266.737 127.566 267.23L122.548 282.011L117.477 267.23C117.317 266.737 116.99 266.491 116.498 266.491L111.238 266.456C110.734 266.456 110.579 266.703 110.774 267.195L119.626 290.278C119.821 290.759 120.153 291 120.623 291H124.507C124.988 291 125.321 290.759 125.504 290.278L134.338 267.23ZM137.475 290.278C137.475 290.759 137.716 291 138.197 291H154.92C155.413 291 155.659 290.759 155.659 290.278V286.067C155.659 285.586 155.413 285.345 154.92 285.345H143.852V281.134H152.016C152.554 281.134 152.823 280.894 152.823 280.412V277.009C152.823 276.746 152.749 276.557 152.6 276.442C152.463 276.316 152.268 276.253 152.016 276.253H143.852V272.18H154.611C155.092 272.18 155.333 271.939 155.333 271.458V267.23C155.333 266.737 155.092 266.491 154.611 266.491H138.197C137.716 266.491 137.475 266.737 137.475 267.23V290.278ZM174.611 290.278C174.909 290.759 175.304 291 175.797 291H180.626C181.165 291 181.434 290.759 181.434 290.278V267.23C181.434 267.012 181.343 266.834 181.159 266.697C180.976 266.559 180.798 266.491 180.626 266.491H176.037C175.785 266.491 175.596 266.565 175.47 266.714C175.356 266.863 175.298 267.035 175.298 267.23V280.602L167.031 267.23C166.882 267.001 166.71 266.823 166.515 266.697C166.321 266.559 166.103 266.491 165.862 266.491H160.517C160.276 266.491 160.093 266.565 159.967 266.714C159.852 266.863 159.795 267.035 159.795 267.23V290.278C159.795 290.759 160.036 291 160.517 291H165.123C165.662 291 165.931 290.759 165.931 290.278V275.995L174.611 290.278ZM184.846 271.406C184.846 271.899 185.087 272.145 185.568 272.145H191.394V290.278C191.394 290.759 191.635 291 192.116 291H196.877C197.37 291 197.616 290.759 197.616 290.278V272.145H203.477C203.958 272.145 204.199 271.899 204.199 271.406V267.23C204.199 266.737 203.958 266.491 203.477 266.491H185.568C185.087 266.491 184.846 266.737 184.846 267.23V271.406ZM208.199 290.278C208.199 290.759 208.44 291 208.921 291H213.854C214.335 291 214.576 290.759 214.576 290.278V267.23C214.576 266.737 214.335 266.491 213.854 266.491H208.921C208.44 266.491 208.199 266.737 208.199 267.23V290.278ZM219.343 290.278C219.343 290.759 219.578 291 220.048 291H234.846C235.328 291 235.568 290.759 235.568 290.278V285.878C235.568 285.397 235.328 285.156 234.846 285.156H225.703V267.23C225.703 266.737 225.462 266.491 224.981 266.491H220.048C219.853 266.491 219.687 266.554 219.55 266.68C219.412 266.806 219.343 266.989 219.343 267.23V290.278ZM251.866 281.736H246.607L249.202 274.242L251.866 281.736ZM237.257 290.278C237.074 290.759 237.228 291 237.721 291H242.637C243.141 291 243.473 290.759 243.634 290.278L244.751 287.047H253.757L254.909 290.278C255.069 290.759 255.396 291 255.888 291H260.804C261.308 291 261.463 290.759 261.268 290.278L252.262 267.23C252.067 266.737 251.735 266.491 251.265 266.491H247.226C246.745 266.491 246.407 266.737 246.212 267.23L237.257 290.278ZM259.837 271.406C259.837 271.899 260.078 272.145 260.559 272.145H266.386V290.278C266.386 290.759 266.626 291 267.107 291H271.868C272.361 291 272.607 290.759 272.607 290.278V272.145H278.468C278.95 272.145 279.19 271.899 279.19 271.406V267.23C279.19 266.737 278.95 266.491 278.468 266.491H260.559C260.078 266.491 259.837 266.737 259.837 267.23V271.406ZM279.942 278.745C279.942 280.487 280.269 282.126 280.922 283.661C281.586 285.185 282.492 286.52 283.638 287.666C284.783 288.8 286.118 289.699 287.642 290.364C289.178 291.017 290.816 291.344 292.558 291.344C294.299 291.344 295.938 291.017 297.473 290.364C299.009 289.699 300.344 288.8 301.478 287.666C302.624 286.52 303.523 285.185 304.177 283.661C304.841 282.126 305.173 280.487 305.173 278.745C305.173 277.004 304.841 275.365 304.177 273.83C303.523 272.294 302.624 270.959 301.478 269.825C300.344 268.679 299.009 267.78 297.473 267.127C295.938 266.462 294.299 266.13 292.558 266.13C290.816 266.13 289.178 266.462 287.642 267.127C286.118 267.78 284.783 268.679 283.638 269.825C282.492 270.959 281.586 272.294 280.922 273.83C280.269 275.365 279.942 277.004 279.942 278.745ZM286.284 278.745C286.284 277.829 286.439 276.975 286.748 276.184C287.069 275.394 287.505 274.701 288.055 274.105C288.616 273.509 289.281 273.045 290.048 272.712C290.816 272.369 291.653 272.197 292.558 272.197C293.474 272.197 294.311 272.369 295.067 272.712C295.835 273.045 296.499 273.509 297.061 274.105C297.622 274.701 298.058 275.394 298.367 276.184C298.677 276.975 298.831 277.829 298.831 278.745C298.831 279.651 298.677 280.504 298.367 281.306C298.058 282.097 297.622 282.79 297.061 283.386C296.499 283.97 295.835 284.434 295.067 284.778C294.311 285.122 293.474 285.294 292.558 285.294C291.653 285.294 290.816 285.122 290.048 284.778C289.281 284.434 288.616 283.97 288.055 283.386C287.505 282.79 287.069 282.097 286.748 281.306C286.439 280.504 286.284 279.651 286.284 278.745ZM319.265 271.595C319.7 271.595 320.096 271.687 320.451 271.87C320.806 272.042 321.116 272.271 321.379 272.558C321.643 272.844 321.843 273.165 321.981 273.52C322.13 273.876 322.204 274.236 322.204 274.603C322.204 274.981 322.13 275.348 321.981 275.703C321.843 276.058 321.643 276.373 321.379 276.648C321.127 276.923 320.818 277.147 320.451 277.319C320.096 277.491 319.7 277.577 319.265 277.577H315.604V271.595H319.265ZM309.245 290.278C309.245 290.759 309.48 291 309.949 291H314.882C315.363 291 315.604 290.759 315.604 290.278V282.853H318.268L322.17 290.312C322.307 290.576 322.433 290.759 322.548 290.862C322.662 290.954 322.834 291 323.063 291H329.01C329.24 291 329.388 290.92 329.457 290.759C329.526 290.599 329.515 290.439 329.423 290.278L324.696 281.478C325.292 281.1 325.836 280.659 326.329 280.155C326.822 279.639 327.246 279.089 327.601 278.505C327.956 277.92 328.231 277.307 328.426 276.666C328.621 276.024 328.718 275.377 328.718 274.723C328.718 273.692 328.529 272.684 328.151 271.698C327.773 270.702 327.24 269.819 326.553 269.052C325.865 268.284 325.04 267.665 324.078 267.195C323.126 266.726 322.067 266.491 320.898 266.491H309.949C309.709 266.491 309.531 266.571 309.417 266.731C309.302 266.88 309.245 267.046 309.245 267.23V290.278ZM352.813 271.595C353.248 271.595 353.644 271.687 353.999 271.87C354.354 272.042 354.663 272.271 354.927 272.558C355.19 272.844 355.391 273.165 355.529 273.52C355.677 273.876 355.752 274.236 355.752 274.603C355.752 274.981 355.677 275.348 355.529 275.703C355.391 276.058 355.19 276.373 354.927 276.648C354.675 276.923 354.365 277.147 353.999 277.319C353.644 277.491 353.248 277.577 352.813 277.577H349.152V271.595H352.813ZM342.793 290.278C342.793 290.759 343.027 291 343.497 291H348.43C348.911 291 349.152 290.759 349.152 290.278V282.853H351.816L355.718 290.312C355.855 290.576 355.981 290.759 356.096 290.862C356.21 290.954 356.382 291 356.611 291H362.558C362.787 291 362.936 290.92 363.005 290.759C363.074 290.599 363.062 290.439 362.971 290.278L358.244 281.478C358.84 281.1 359.384 280.659 359.877 280.155C360.37 279.639 360.794 279.089 361.149 278.505C361.504 277.92 361.779 277.307 361.974 276.666C362.169 276.024 362.266 275.377 362.266 274.723C362.266 273.692 362.077 272.684 361.699 271.698C361.321 270.702 360.788 269.819 360.1 269.052C359.413 268.284 358.588 267.665 357.625 267.195C356.674 266.726 355.614 266.491 354.446 266.491H343.497C343.257 266.491 343.079 266.571 342.964 266.731C342.85 266.88 342.793 267.046 342.793 267.23V290.278ZM365.961 290.278C365.961 290.759 366.202 291 366.683 291H383.407C383.899 291 384.146 290.759 384.146 290.278V286.067C384.146 285.586 383.899 285.345 383.407 285.345H372.338V281.134H380.502C381.04 281.134 381.31 280.894 381.31 280.412V277.009C381.31 276.746 381.235 276.557 381.086 276.442C380.949 276.316 380.754 276.253 380.502 276.253H372.338V272.18H383.097C383.579 272.18 383.819 271.939 383.819 271.458V267.23C383.819 266.737 383.579 266.491 383.097 266.491H366.683C366.202 266.491 365.961 266.737 365.961 267.23V290.278ZM398.514 285.259C397.621 285.259 396.796 285.087 396.039 284.744C395.295 284.389 394.647 283.913 394.097 283.317C393.547 282.721 393.118 282.028 392.808 281.237C392.51 280.435 392.361 279.582 392.361 278.677C392.361 277.76 392.51 276.906 392.808 276.116C393.106 275.325 393.53 274.637 394.08 274.053C394.63 273.469 395.289 273.01 396.057 272.678C396.836 272.334 397.707 272.162 398.669 272.162C399.391 272.162 400.05 272.277 400.646 272.506C401.242 272.724 401.792 273.016 402.296 273.383C402.445 273.497 402.599 273.555 402.76 273.555C402.977 273.555 403.149 273.457 403.275 273.262L406.008 269.344C406.123 269.183 406.157 269.023 406.111 268.862C406.077 268.691 405.974 268.542 405.802 268.416C404.794 267.671 403.711 267.104 402.554 266.714C401.408 266.324 400.09 266.13 398.6 266.13C396.847 266.13 395.203 266.456 393.668 267.109C392.144 267.762 390.809 268.656 389.663 269.791C388.529 270.914 387.629 272.237 386.964 273.761C386.311 275.285 385.985 276.923 385.985 278.677C385.985 280.43 386.317 282.074 386.982 283.609C387.646 285.145 388.551 286.485 389.697 287.631C390.855 288.777 392.201 289.682 393.736 290.347C395.272 291.011 396.916 291.344 398.669 291.344C400.17 291.344 401.591 291.166 402.932 290.811C404.284 290.456 405.464 289.957 406.472 289.316C406.633 289.224 406.736 289.115 406.782 288.989C406.839 288.852 406.868 288.703 406.868 288.542V280.567C406.868 280.258 406.782 280.063 406.61 279.983C406.449 279.891 406.3 279.845 406.163 279.845H401.557C401.075 279.845 400.835 280.086 400.835 280.567V284.933C400.468 285.047 400.084 285.133 399.683 285.191C399.294 285.236 398.904 285.259 398.514 285.259ZM411.678 290.278C411.678 290.759 411.919 291 412.4 291H417.333C417.814 291 418.054 290.759 418.054 290.278V267.23C418.054 266.737 417.814 266.491 417.333 266.491H412.4C411.919 266.491 411.678 266.737 411.678 267.23V290.278ZM422.719 287.133C423.269 287.706 423.882 288.244 424.558 288.748C425.245 289.253 425.973 289.694 426.741 290.072C427.52 290.45 428.328 290.754 429.164 290.983C430.001 291.201 430.843 291.309 431.691 291.309C433.043 291.309 434.292 291.12 435.438 290.742C436.583 290.364 437.574 289.831 438.411 289.144C439.259 288.445 439.918 287.603 440.388 286.617C440.869 285.632 441.109 284.537 441.109 283.334C441.109 282.189 440.915 281.215 440.525 280.412C440.147 279.61 439.608 278.923 438.909 278.35C438.222 277.766 437.391 277.261 436.417 276.837C435.455 276.414 434.389 276.007 433.22 275.617C432.624 275.422 432.086 275.239 431.605 275.067C431.135 274.884 430.734 274.701 430.402 274.517C430.069 274.322 429.817 274.116 429.645 273.898C429.473 273.669 429.388 273.4 429.388 273.091C429.388 272.781 429.462 272.523 429.611 272.317C429.771 272.099 429.972 271.928 430.213 271.802C430.465 271.664 430.745 271.572 431.055 271.527C431.364 271.469 431.673 271.441 431.983 271.441C432.796 271.441 433.518 271.601 434.148 271.922C434.779 272.243 435.392 272.672 435.988 273.211C436.136 273.337 436.28 273.446 436.417 273.537C436.555 273.618 436.698 273.658 436.847 273.658C437.03 273.658 437.208 273.572 437.38 273.4L439.906 270.702C440.17 270.438 440.302 270.186 440.302 269.945C440.302 269.705 440.187 269.453 439.958 269.189C439.534 268.719 439.013 268.29 438.394 267.9C437.786 267.499 437.128 267.155 436.417 266.869C435.718 266.582 434.985 266.365 434.217 266.216C433.461 266.055 432.71 265.975 431.966 265.975C430.636 265.975 429.422 266.141 428.322 266.473C427.233 266.794 426.294 267.253 425.503 267.848C424.724 268.433 424.117 269.143 423.681 269.98C423.246 270.816 423.028 271.744 423.028 272.764C423.028 273.727 423.2 274.603 423.544 275.394C423.899 276.184 424.415 276.906 425.091 277.559C425.767 278.212 426.609 278.808 427.617 279.347C428.637 279.885 429.806 280.384 431.123 280.842C431.421 280.945 431.765 281.071 432.155 281.22C432.544 281.369 432.917 281.547 433.272 281.753C433.627 281.948 433.925 282.183 434.166 282.458C434.406 282.721 434.527 283.025 434.527 283.369C434.527 283.678 434.486 283.976 434.406 284.262C434.338 284.537 434.2 284.778 433.994 284.984C433.788 285.191 433.507 285.357 433.152 285.483C432.796 285.609 432.338 285.672 431.777 285.672C431.272 285.672 430.78 285.586 430.298 285.414C429.817 285.242 429.359 285.03 428.923 284.778C428.488 284.515 428.076 284.234 427.686 283.936C427.308 283.627 426.964 283.346 426.655 283.094C426.529 282.979 426.397 282.887 426.259 282.819C426.133 282.75 426.007 282.716 425.881 282.716C425.709 282.716 425.543 282.796 425.383 282.956L422.53 285.672C422.392 285.809 422.301 285.941 422.255 286.067C422.22 286.193 422.22 286.319 422.255 286.445C422.289 286.56 422.346 286.674 422.427 286.789C422.518 286.904 422.616 287.018 422.719 287.133ZM443.722 271.406C443.722 271.899 443.963 272.145 444.444 272.145H450.27V290.278C450.27 290.759 450.511 291 450.992 291H455.753C456.246 291 456.492 290.759 456.492 290.278V272.145H462.353C462.834 272.145 463.075 271.899 463.075 271.406V267.23C463.075 266.737 462.834 266.491 462.353 266.491H444.444C443.963 266.491 443.722 266.737 443.722 267.23V271.406ZM477.079 271.595C477.514 271.595 477.909 271.687 478.264 271.87C478.62 272.042 478.929 272.271 479.193 272.558C479.456 272.844 479.657 273.165 479.794 273.52C479.943 273.876 480.018 274.236 480.018 274.603C480.018 274.981 479.943 275.348 479.794 275.703C479.657 276.058 479.456 276.373 479.193 276.648C478.94 276.923 478.631 277.147 478.264 277.319C477.909 277.491 477.514 277.577 477.079 277.577H473.418V271.595H477.079ZM467.058 290.278C467.058 290.759 467.293 291 467.763 291H472.696C473.177 291 473.418 290.759 473.418 290.278V282.853H476.082L479.983 290.312C480.121 290.576 480.247 290.759 480.361 290.862C480.476 290.954 480.648 291 480.877 291H486.824C487.053 291 487.202 290.92 487.271 290.759C487.339 290.599 487.328 290.439 487.236 290.278L482.51 281.478C483.106 281.1 483.65 280.659 484.143 280.155C484.635 279.639 485.059 279.089 485.414 278.505C485.77 277.92 486.045 277.307 486.239 276.666C486.434 276.024 486.532 275.377 486.532 274.723C486.532 273.692 486.343 272.684 485.964 271.698C485.586 270.702 485.054 269.819 484.366 269.052C483.679 268.284 482.854 267.665 481.891 267.195C480.94 266.726 479.88 266.491 478.711 266.491H467.763C467.522 266.491 467.345 266.571 467.23 266.731C467.115 266.88 467.058 267.046 467.058 267.23V290.278ZM495.95 290.278C495.95 290.759 496.191 291 496.672 291H501.605C502.086 291 502.327 290.759 502.327 290.278V280.98L510.164 267.23C510.29 267.001 510.302 266.823 510.199 266.697C510.107 266.559 509.941 266.491 509.7 266.491H503.977C503.736 266.491 503.542 266.554 503.393 266.68C503.255 266.794 503.123 266.978 502.997 267.23L499.147 275.497L495.263 267.23C495.137 266.978 494.999 266.794 494.85 266.68C494.713 266.554 494.524 266.491 494.283 266.491H488.629C488.388 266.491 488.216 266.559 488.113 266.697C488.021 266.823 488.038 267.001 488.164 267.23L495.95 281.014V290.278Z" fill="#13436D"/>
<rect width="512" height="250" rx="120" fill="#003C7D" fill-opacity="0.25"/>
<path fill-rule="evenodd" clip-rule="evenodd" d="M400.282 38.5192C410.98 31.6205 415.491 28.7118 415.725 29.0224C415.895 29.2488 413.793 31.1858 410.158 34.5348C402.015 42.0373 386.182 56.6257 370.979 74.9431C334.903 118.41 294.336 204 294.336 204H266.756L266.557 204.115L266.491 204H266.336V203.733L214.345 113.907C211.579 109.127 213.216 103.018 218.002 100.262L237.066 89.2823C241.852 86.5261 247.975 88.1666 250.741 92.9465L282.167 147.242C304.167 118.103 338.907 77.7591 378.669 52.3942C387.674 46.6493 394.793 42.059 400.282 38.5192Z" fill="#002F59" style="mix-blend-mode:darken"/>
<circle cx="129" cy="124" r="80" fill="#002F59" style="mix-blend-mode:darken"/>
<circle cx="129" cy="124" r="52" fill="#BFCEDF"/>
<path fill-rule="evenodd" clip-rule="evenodd" d="M140.75 91C140.75 88.2386 138.511 86 135.75 86H123.25C120.489 86 118.25 88.2386 118.25 91V107.25C118.25 110.011 116.011 112.25 113.25 112.25H97C94.2386 112.25 92 114.489 92 117.25V129.75C92 132.511 94.2386 134.75 97 134.75H113.25C116.011 134.75 118.25 136.989 118.25 139.75V156C118.25 158.761 120.489 161 123.25 161H135.75C138.511 161 140.75 158.761 140.75 156V139.75C140.75 136.989 142.989 134.75 145.75 134.75H162C164.761 134.75 167 132.511 167 129.75V117.25C167 114.489 164.761 112.25 162 112.25H145.75C142.989 112.25 140.75 110.011 140.75 107.25V91Z" fill="#E4000F"/>
<path fill-rule="evenodd" clip-rule="evenodd" d="M409.606 93H365V112.289V117.111V148.456V158.1V172.567V203.911H389.111V172.567H409.581C409.589 172.567 409.597 172.567 409.606 172.567C409.614 172.567 409.622 172.567 409.631 172.567H410.811V172.549C410.892 172.547 410.973 172.544 411.053 172.541L431.306 203.911L460.239 203.911L434.278 163.995C443.483 156.708 449.389 145.435 449.389 132.783C449.389 111.215 432.225 93.6552 410.811 93.0179V93H409.606Z" fill="#002F59" style="mix-blend-mode:darken"/>
<path fill-rule="evenodd" clip-rule="evenodd" d="M410.811 117.111H389.111V148.456H410.811V148.41C411.209 148.44 411.611 148.456 412.017 148.456C420.672 148.456 427.689 141.439 427.689 132.783C427.689 124.128 420.672 117.111 412.017 117.111C411.611 117.111 411.209 117.127 410.811 117.157V117.111Z" fill="#BFCEDF"/>
</svg>
