<svg width="512" height="311" viewBox="0 0 512 311" fill="none" xmlns="http://www.w3.org/2000/svg">
<path d="M15.8214 266.653C8.72142 266.653 2.93492 272.44 2.93492 279.539C2.93492 286.639 8.72142 292.426 15.8214 292.426C22.9214 292.426 28.7079 286.639 28.7079 279.539C28.7079 272.44 22.9214 266.653 15.8214 266.653ZM15.8214 271.765C20.1169 271.765 23.5959 275.244 23.5959 279.539C23.5959 283.835 20.1169 287.314 15.8214 287.314C11.5259 287.314 8.04692 283.835 8.04692 279.539C8.04692 275.244 11.5259 271.765 15.8214 271.765ZM32.8947 267.114V292H37.8647V282.06H40.9532C45.0712 282.06 48.4082 278.723 48.4082 274.605C48.4082 270.487 45.0712 267.114 40.9532 267.114H32.8947ZM37.8647 277.09V272.084H40.9532C42.3022 272.084 43.4382 273.22 43.4382 274.605C43.4382 275.989 42.3022 277.09 40.9532 277.09H37.8647ZM68.8889 267.114H52.3104V292H68.7824V287.03H57.2804V281.634H66.8654V276.664H57.2804V272.084H68.8889V267.114ZM92.4496 292L78.4626 277.48V292H73.4926V267.114H75.0546L88.7931 281.03V267.114H93.7631V292H92.4496ZM121.239 292L132.457 267.114H126.955L120.494 281.243L113.997 267.114H108.495L119.748 292H121.239ZM153.132 267.114H136.554V292H153.026V287.03H141.524V281.634H151.109V276.664H141.524V272.084H153.132V267.114ZM176.693 292L162.706 277.48V292H157.736V267.114H159.298L173.036 281.03V267.114H178.006V292H176.693ZM182.095 267.114V272.084H189.017V292H193.987V272.084H200.874V267.114H182.095ZM215.213 272.084V267.114H204.953V272.084H207.616V287.03H204.953V292H215.213V287.03H212.586V272.084H215.213ZM224.796 267.114H219.826V291.964H234.062V287.03H224.796V267.114ZM257.304 292H262.807L251.056 267.114H249.601L236.927 292H242.501L244.844 287.385H255.139L257.304 292ZM247.4 282.415L250.204 276.877L252.796 282.415H247.4ZM261.207 267.114V272.084H268.13V292H273.1V272.084H279.987V267.114H261.207ZM294.101 266.653C287.001 266.653 281.215 272.44 281.215 279.539C281.215 286.639 287.001 292.426 294.101 292.426C301.201 292.426 306.988 286.639 306.988 279.539C306.988 272.44 301.201 266.653 294.101 266.653ZM294.101 271.765C298.397 271.765 301.876 275.244 301.876 279.539C301.876 283.835 298.397 287.314 294.101 287.314C289.806 287.314 286.327 283.835 286.327 279.539C286.327 275.244 289.806 271.765 294.101 271.765ZM328.285 292L323.351 281.35C325.942 280.178 327.717 277.587 327.717 274.569C327.717 270.451 324.38 267.079 320.262 267.079H310.89V291.964H315.86V282.024H318.345L322.996 292H328.285ZM320.262 272.049C321.647 272.049 322.747 273.185 322.747 274.569C322.747 275.954 321.647 277.054 320.262 277.054H315.86V272.049H320.262ZM359.695 292L354.76 281.35C357.352 280.178 359.127 277.587 359.127 274.569C359.127 270.451 355.79 267.079 351.672 267.079H342.3V291.964H347.27V282.024H349.755L354.405 292H359.695ZM351.672 272.049C353.056 272.049 354.157 273.185 354.157 274.569C354.157 275.954 353.056 277.054 351.672 277.054H347.27V272.049H351.672ZM379.999 267.114H363.421V292H379.893V287.03H368.391V281.634H377.976V276.664H368.391V272.084H379.999V267.114ZM397.638 281.634H403.389C403.034 283.018 402.324 284.261 401.259 285.29C399.768 286.746 397.816 287.562 395.721 287.562H395.615C393.52 287.562 391.532 286.71 390.041 285.184C388.586 283.693 387.769 281.669 387.805 279.575C387.805 277.48 388.657 275.492 390.148 274.037C391.639 272.546 393.627 271.729 395.721 271.729H395.792C397.39 271.765 398.881 272.226 400.159 273.114L403.744 269.599C401.579 267.86 398.845 266.795 395.828 266.759H395.721C388.657 266.759 382.906 272.44 382.835 279.504C382.764 286.639 388.444 292.355 395.579 292.426C397.461 292.426 400.514 291.822 403.425 289.515V292H408.395V276.664H397.638V281.634ZM423.255 272.084V267.114H412.996V272.084H415.658V287.03H412.996V292H423.255V287.03H420.628V272.084H423.255ZM435.963 281.492L436.069 281.527C438.661 282.415 440.187 283.657 440.187 285.006C440.187 285.645 439.513 287.527 437.454 287.527C436.353 287.527 433.407 287.527 430.78 284.722L427.159 288.13C428.863 289.941 430.851 291.183 433.087 291.893C434.862 292.426 436.353 292.497 437.454 292.497C439.69 292.497 441.714 291.574 443.169 289.941C444.412 288.556 445.157 286.746 445.157 285.006C445.157 283.231 444.483 281.563 443.205 280.143C441.927 278.758 440.081 277.658 437.702 276.841C437.489 276.77 437.276 276.699 436.992 276.628C434.72 276.06 433.833 275.35 433.797 274.073C433.762 273.256 434.01 272.865 434.223 272.652C434.862 271.978 436.105 271.729 436.424 271.729C438.59 271.729 439.619 272.404 441.217 273.433L442.104 274.001L444.696 269.777L443.879 269.244C442.069 268.073 440.045 266.759 436.424 266.759C435.146 266.759 432.484 267.292 430.638 269.209C429.36 270.558 428.721 272.297 428.827 274.285C428.934 276.664 430.034 278.581 432.022 279.894C433.442 280.853 434.969 281.243 435.785 281.456L435.963 281.492ZM447.825 267.114V272.084H454.747V292H459.717V272.084H466.604V267.114H447.825ZM487.723 292L482.789 281.35C485.38 280.178 487.155 277.587 487.155 274.569C487.155 270.451 483.818 267.079 479.7 267.079H470.328V291.964H475.298V282.024H477.783L482.434 292H487.723ZM479.7 272.049C481.085 272.049 482.185 273.185 482.185 274.569C482.185 275.954 481.085 277.054 479.7 277.054H475.298V272.049H479.7ZM503.934 267.114L498.858 276.486L493.746 267.114H488.243L496.373 282.877V292H501.343V282.877L509.437 267.114H503.934Z" fill="#13436D"/>
<rect width="512" height="250" rx="120" fill="#003C7D" fill-opacity="0.25"/>
<path fill-rule="evenodd" clip-rule="evenodd" d="M400.282 38.5192C410.98 31.6205 415.491 28.7118 415.725 29.0224C415.895 29.2488 413.793 31.1858 410.158 34.5348C402.015 42.0373 386.182 56.6257 370.979 74.9431C334.903 118.41 294.336 204 294.336 204H266.756L266.557 204.115L266.491 204H266.336V203.733L214.345 113.907C211.579 109.127 213.216 103.018 218.002 100.262L237.066 89.2823C241.852 86.5261 247.975 88.1666 250.741 92.9465L282.167 147.242C304.167 118.103 338.907 77.7591 378.669 52.3942C387.674 46.6493 394.793 42.059 400.282 38.5192Z" fill="#002F59" style="mix-blend-mode:darken"/>
<circle cx="129" cy="124" r="80" fill="#002F59" style="mix-blend-mode:darken"/>
<circle cx="129" cy="124" r="52" fill="#BFCEDF"/>
<path fill-rule="evenodd" clip-rule="evenodd" d="M140.75 91C140.75 88.2386 138.511 86 135.75 86H123.25C120.489 86 118.25 88.2386 118.25 91V107.25C118.25 110.011 116.011 112.25 113.25 112.25H97C94.2386 112.25 92 114.489 92 117.25V129.75C92 132.511 94.2386 134.75 97 134.75H113.25C116.011 134.75 118.25 136.989 118.25 139.75V156C118.25 158.761 120.489 161 123.25 161H135.75C138.511 161 140.75 158.761 140.75 156V139.75C140.75 136.989 142.989 134.75 145.75 134.75H162C164.761 134.75 167 132.511 167 129.75V117.25C167 114.489 164.761 112.25 162 112.25H145.75C142.989 112.25 140.75 110.011 140.75 107.25V91Z" fill="#E4000F"/>
<path fill-rule="evenodd" clip-rule="evenodd" d="M409.606 93H365V112.289V117.111V148.456V158.1V172.567V203.911H389.111V172.567H409.581C409.589 172.567 409.597 172.567 409.606 172.567C409.614 172.567 409.622 172.567 409.631 172.567H410.811V172.549C410.892 172.547 410.973 172.544 411.053 172.541L431.306 203.911L460.239 203.911L434.278 163.995C443.483 156.708 449.389 145.435 449.389 132.783C449.389 111.215 432.225 93.6552 410.811 93.0179V93H409.606Z" fill="#002F59" style="mix-blend-mode:darken"/>
<path fill-rule="evenodd" clip-rule="evenodd" d="M410.811 117.111H389.111V148.456H410.811V148.41C411.209 148.44 411.611 148.456 412.017 148.456C420.672 148.456 427.689 141.439 427.689 132.783C427.689 124.128 420.672 117.111 412.017 117.111C411.611 117.111 411.209 117.127 410.811 117.157V117.111Z" fill="#BFCEDF"/>
</svg>
