<svg width="1440" height="1024" viewBox="0 0 1440 1024" fill="none" xmlns="http://www.w3.org/2000/svg">
<rect width="1440" height="1024" fill="white"/>
<g filter="url(#filter0_d)">
<rect x="59" y="272" width="1322" height="480" fill="#F1F1F1"/>
</g>
<rect x="330" y="324" width="150" height="200" rx="30" fill="#00549E"/>
<rect x="540" y="324" width="150" height="200" rx="30" fill="#85EDEE"/>
<rect x="750" y="324" width="150" height="200" rx="30" fill="#312F3E"/>
<rect x="960" y="324" width="150" height="200" rx="30" fill="#E00F00"/>
<rect x="1170" y="324" width="150" height="200" rx="30" fill="#00D37A"/>
<rect x="120" y="324" width="150" height="200" rx="30" fill="white"/>
<path d="M352.114 364.14C351.194 364.14 350.368 363.98 349.634 363.66C348.914 363.327 348.348 362.873 347.934 362.3C347.521 361.713 347.308 361.04 347.294 360.28H349.234C349.301 360.933 349.568 361.487 350.034 361.94C350.514 362.38 351.208 362.6 352.114 362.6C352.981 362.6 353.661 362.387 354.154 361.96C354.661 361.52 354.914 360.96 354.914 360.28C354.914 359.747 354.768 359.313 354.474 358.98C354.181 358.647 353.814 358.393 353.374 358.22C352.934 358.047 352.341 357.86 351.594 357.66C350.674 357.42 349.934 357.18 349.374 356.94C348.828 356.7 348.354 356.327 347.954 355.82C347.568 355.3 347.374 354.607 347.374 353.74C347.374 352.98 347.568 352.307 347.954 351.72C348.341 351.133 348.881 350.68 349.574 350.36C350.281 350.04 351.088 349.88 351.994 349.88C353.301 349.88 354.368 350.207 355.194 350.86C356.034 351.513 356.508 352.38 356.614 353.46H354.614C354.548 352.927 354.268 352.46 353.774 352.06C353.281 351.647 352.628 351.44 351.814 351.44C351.054 351.44 350.434 351.64 349.954 352.04C349.474 352.427 349.234 352.973 349.234 353.68C349.234 354.187 349.374 354.6 349.654 354.92C349.948 355.24 350.301 355.487 350.714 355.66C351.141 355.82 351.734 356.007 352.494 356.22C353.414 356.473 354.154 356.727 354.714 356.98C355.274 357.22 355.754 357.6 356.154 358.12C356.554 358.627 356.754 359.32 356.754 360.2C356.754 360.88 356.574 361.52 356.214 362.12C355.854 362.72 355.321 363.207 354.614 363.58C353.908 363.953 353.074 364.14 352.114 364.14ZM361.253 351.54V356.2H366.333V357.7H361.253V362.5H366.933V364H359.433V350.04H366.933V351.54H361.253ZM369.006 357.02C369.006 355.66 369.313 354.44 369.926 353.36C370.54 352.267 371.373 351.413 372.426 350.8C373.493 350.187 374.673 349.88 375.966 349.88C377.486 349.88 378.813 350.247 379.946 350.98C381.08 351.713 381.906 352.753 382.426 354.1H380.246C379.86 353.26 379.3 352.613 378.566 352.16C377.846 351.707 376.98 351.48 375.966 351.48C374.993 351.48 374.12 351.707 373.346 352.16C372.573 352.613 371.966 353.26 371.526 354.1C371.086 354.927 370.866 355.9 370.866 357.02C370.866 358.127 371.086 359.1 371.526 359.94C371.966 360.767 372.573 361.407 373.346 361.86C374.12 362.313 374.993 362.54 375.966 362.54C376.98 362.54 377.846 362.32 378.566 361.88C379.3 361.427 379.86 360.78 380.246 359.94H382.426C381.906 361.273 381.08 362.307 379.946 363.04C378.813 363.76 377.486 364.12 375.966 364.12C374.673 364.12 373.493 363.82 372.426 363.22C371.373 362.607 370.54 361.76 369.926 360.68C369.313 359.6 369.006 358.38 369.006 357.02ZM391.456 364.14C390.162 364.14 388.982 363.84 387.916 363.24C386.849 362.627 386.002 361.78 385.376 360.7C384.762 359.607 384.456 358.38 384.456 357.02C384.456 355.66 384.762 354.44 385.376 353.36C386.002 352.267 386.849 351.42 387.916 350.82C388.982 350.207 390.162 349.9 391.456 349.9C392.762 349.9 393.949 350.207 395.016 350.82C396.082 351.42 396.922 352.26 397.536 353.34C398.149 354.42 398.456 355.647 398.456 357.02C398.456 358.393 398.149 359.62 397.536 360.7C396.922 361.78 396.082 362.627 395.016 363.24C393.949 363.84 392.762 364.14 391.456 364.14ZM391.456 362.56C392.429 362.56 393.302 362.333 394.076 361.88C394.862 361.427 395.476 360.78 395.916 359.94C396.369 359.1 396.596 358.127 396.596 357.02C396.596 355.9 396.369 354.927 395.916 354.1C395.476 353.26 394.869 352.613 394.096 352.16C393.322 351.707 392.442 351.48 391.456 351.48C390.469 351.48 389.589 351.707 388.816 352.16C388.042 352.613 387.429 353.26 386.976 354.1C386.536 354.927 386.316 355.9 386.316 357.02C386.316 358.127 386.536 359.1 386.976 359.94C387.429 360.78 388.042 361.427 388.816 361.88C389.602 362.333 390.482 362.56 391.456 362.56ZM411.818 364H409.998L402.678 352.9V364H400.858V350.04H402.678L409.998 361.12V350.04H411.818V364ZM419.261 350.06C420.781 350.06 422.094 350.347 423.201 350.92C424.321 351.48 425.174 352.287 425.761 353.34C426.361 354.393 426.661 355.633 426.661 357.06C426.661 358.487 426.361 359.727 425.761 360.78C425.174 361.82 424.321 362.62 423.201 363.18C422.094 363.727 420.781 364 419.261 364H414.921V350.06H419.261ZM419.261 362.5C421.061 362.5 422.434 362.027 423.381 361.08C424.328 360.12 424.801 358.78 424.801 357.06C424.801 355.327 424.321 353.973 423.361 353C422.414 352.027 421.048 351.54 419.261 351.54H416.741V362.5H419.261ZM437.301 360.9H431.221L430.101 364H428.181L433.221 350.14H435.321L440.341 364H438.421L437.301 360.9ZM436.781 359.42L434.261 352.38L431.741 359.42H436.781ZM449.878 364L446.558 358.3H444.358V364H442.538V350.06H447.038C448.091 350.06 448.978 350.24 449.698 350.6C450.431 350.96 450.978 351.447 451.338 352.06C451.698 352.673 451.878 353.373 451.878 354.16C451.878 355.12 451.598 355.967 451.038 356.7C450.491 357.433 449.665 357.92 448.558 358.16L452.058 364H449.878ZM444.358 356.84H447.038C448.025 356.84 448.765 356.6 449.258 356.12C449.751 355.627 449.998 354.973 449.998 354.16C449.998 353.333 449.751 352.693 449.258 352.24C448.778 351.787 448.038 351.56 447.038 351.56H444.358V356.84ZM464.466 350.06L459.926 358.74V364H458.106V358.74L453.546 350.06H455.566L459.006 357.12L462.446 350.06H464.466Z" fill="white"/>
<path d="M164.249 354.14C164.249 355.3 163.849 356.267 163.049 357.04C162.262 357.8 161.055 358.18 159.429 358.18H156.749V364H154.929V350.06H159.429C161.002 350.06 162.195 350.44 163.009 351.2C163.835 351.96 164.249 352.94 164.249 354.14ZM159.429 356.68C160.442 356.68 161.189 356.46 161.669 356.02C162.149 355.58 162.389 354.953 162.389 354.14C162.389 352.42 161.402 351.56 159.429 351.56H156.749V356.68H159.429ZM173.851 364L170.531 358.3H168.331V364H166.511V350.06H171.011C172.064 350.06 172.951 350.24 173.671 350.6C174.404 350.96 174.951 351.447 175.311 352.06C175.671 352.673 175.851 353.373 175.851 354.16C175.851 355.12 175.571 355.967 175.011 356.7C174.464 357.433 173.637 357.92 172.531 358.16L176.031 364H173.851ZM168.331 356.84H171.011C171.997 356.84 172.737 356.6 173.231 356.12C173.724 355.627 173.971 354.973 173.971 354.16C173.971 353.333 173.724 352.693 173.231 352.24C172.751 351.787 172.011 351.56 171.011 351.56H168.331V356.84ZM180.499 350.06V364H178.679V350.06H180.499ZM197.741 350.16V364H195.921V353.68L191.321 364H190.041L185.421 353.66V364H183.601V350.16H185.561L190.681 361.6L195.801 350.16H197.741ZM209.067 360.9H202.987L201.867 364H199.947L204.987 350.14H207.087L212.107 364H210.187L209.067 360.9ZM208.547 359.42L206.027 352.38L203.507 359.42H208.547ZM221.644 364L218.324 358.3H216.124V364H214.304V350.06H218.804C219.857 350.06 220.744 350.24 221.464 350.6C222.197 350.96 222.744 351.447 223.104 352.06C223.464 352.673 223.644 353.373 223.644 354.16C223.644 355.12 223.364 355.967 222.804 356.7C222.257 357.433 221.43 357.92 220.324 358.16L223.824 364H221.644ZM216.124 356.84H218.804C219.79 356.84 220.53 356.6 221.024 356.12C221.517 355.627 221.764 354.973 221.764 354.16C221.764 353.333 221.517 352.693 221.024 352.24C220.544 351.787 219.804 351.56 218.804 351.56H216.124V356.84ZM236.232 350.06L231.692 358.74V364H229.872V358.74L225.312 350.06H227.332L230.772 357.12L234.212 350.06H236.232Z" fill="black"/>
<path d="M167.947 494.8L167.187 498.4H169.947V500H166.847L165.987 504H164.247L165.107 500H160.907L160.047 504H158.307L159.167 500H156.027V498.4H159.507L160.267 494.8H157.167V493.2H160.607L161.467 489.2H163.207L162.347 493.2H166.547L167.407 489.2H169.147L168.287 493.2H171.067V494.8H167.947ZM166.207 494.8H162.007L161.247 498.4H165.447L166.207 494.8ZM181.584 490.06V491.54H175.524V496.24H180.444V497.72H175.524V504H173.704V490.06H181.584ZM191.662 490.06V491.54H185.602V496.24H190.522V497.72H185.602V504H183.782V490.06H191.662ZM201.74 490.06V491.54H195.68V496.24H200.6V497.72H195.68V504H193.86V490.06H201.74ZM211.818 490.06V491.54H205.758V496.24H210.678V497.72H205.758V504H203.938V490.06H211.818ZM221.897 490.06V491.54H215.837V496.24H220.757V497.72H215.837V504H214.017V490.06H221.897ZM231.975 490.06V491.54H225.915V496.24H230.835V497.72H225.915V504H224.095V490.06H231.975Z" fill="black"/>
<path d="M585.643 494.8L584.883 498.4H587.643V500H584.543L583.683 504H581.943L582.803 500H578.603L577.743 504H576.002L576.863 500H573.722V498.4H577.203L577.963 494.8H574.863V493.2H578.303L579.163 489.2H580.903L580.043 493.2H584.243L585.103 489.2H586.843L585.983 493.2H588.763V494.8H585.643ZM583.903 494.8H579.703L578.942 498.4H583.143L583.903 494.8ZM593.739 496.48C592.993 496.187 592.419 495.76 592.019 495.2C591.619 494.64 591.419 493.96 591.419 493.16C591.419 492.44 591.599 491.793 591.959 491.22C592.319 490.633 592.853 490.173 593.559 489.84C594.279 489.493 595.146 489.32 596.159 489.32C597.173 489.32 598.033 489.493 598.739 489.84C599.459 490.173 599.999 490.633 600.359 491.22C600.733 491.793 600.919 492.44 600.919 493.16C600.919 493.933 600.713 494.613 600.299 495.2C599.886 495.773 599.319 496.2 598.599 496.48C599.426 496.733 600.079 497.18 600.559 497.82C601.053 498.447 601.299 499.207 601.299 500.1C601.299 500.967 601.086 501.727 600.659 502.38C600.233 503.02 599.626 503.52 598.839 503.88C598.066 504.227 597.173 504.4 596.159 504.4C595.146 504.4 594.253 504.227 593.479 503.88C592.719 503.52 592.126 503.02 591.699 502.38C591.273 501.727 591.059 500.967 591.059 500.1C591.059 499.207 591.299 498.44 591.779 497.8C592.259 497.16 592.913 496.72 593.739 496.48ZM599.159 493.38C599.159 492.567 598.893 491.94 598.359 491.5C597.826 491.06 597.093 490.84 596.159 490.84C595.239 490.84 594.513 491.06 593.979 491.5C593.446 491.94 593.179 492.573 593.179 493.4C593.179 494.147 593.453 494.747 593.999 495.2C594.559 495.653 595.279 495.88 596.159 495.88C597.053 495.88 597.773 495.653 598.319 495.2C598.879 494.733 599.159 494.127 599.159 493.38ZM596.159 497.28C595.173 497.28 594.366 497.513 593.739 497.98C593.113 498.433 592.799 499.12 592.799 500.04C592.799 500.893 593.099 501.58 593.699 502.1C594.313 502.62 595.133 502.88 596.159 502.88C597.186 502.88 597.999 502.62 598.599 502.1C599.199 501.58 599.499 500.893 599.499 500.04C599.499 499.147 599.193 498.467 598.579 498C597.966 497.52 597.159 497.28 596.159 497.28ZM612.937 491.12H605.917V495.68C606.223 495.253 606.677 494.907 607.277 494.64C607.877 494.36 608.523 494.22 609.217 494.22C610.323 494.22 611.223 494.453 611.917 494.92C612.61 495.373 613.103 495.967 613.397 496.7C613.703 497.42 613.857 498.187 613.857 499C613.857 499.96 613.677 500.82 613.317 501.58C612.957 502.34 612.403 502.94 611.657 503.38C610.923 503.82 610.01 504.04 608.917 504.04C607.517 504.04 606.383 503.68 605.517 502.96C604.65 502.24 604.123 501.28 603.937 500.08H605.717C605.89 500.84 606.257 501.433 606.817 501.86C607.377 502.287 608.083 502.5 608.937 502.5C609.99 502.5 610.783 502.187 611.317 501.56C611.85 500.92 612.117 500.08 612.117 499.04C612.117 498 611.85 497.2 611.317 496.64C610.783 496.067 609.997 495.78 608.957 495.78C608.25 495.78 607.63 495.953 607.097 496.3C606.577 496.633 606.197 497.093 605.957 497.68H604.237V489.52H612.937V491.12ZM618.395 491.54V496.2H623.475V497.7H618.395V502.5H624.075V504H616.575V490.04H624.075V491.54H618.395ZM631.169 490.06C632.689 490.06 634.002 490.347 635.109 490.92C636.229 491.48 637.082 492.287 637.669 493.34C638.269 494.393 638.569 495.633 638.569 497.06C638.569 498.487 638.269 499.727 637.669 500.78C637.082 501.82 636.229 502.62 635.109 503.18C634.002 503.727 632.689 504 631.169 504H626.829V490.06H631.169ZM631.169 502.5C632.969 502.5 634.342 502.027 635.289 501.08C636.236 500.12 636.709 498.78 636.709 497.06C636.709 495.327 636.229 493.973 635.269 493C634.322 492.027 632.956 491.54 631.169 491.54H628.649V502.5H631.169ZM642.79 491.54V496.2H647.87V497.7H642.79V502.5H648.47V504H640.97V490.04H648.47V491.54H642.79ZM653.044 491.54V496.2H658.124V497.7H653.044V502.5H658.724V504H651.224V490.04H658.724V491.54H653.044Z" fill="#312F3E"/>
<path d="M797.783 494.8L797.023 498.4H799.783V500H796.683L795.823 504H794.083L794.943 500H790.743L789.883 504H788.143L789.003 500H785.863V498.4H789.343L790.103 494.8H787.003V493.2H790.443L791.303 489.2H793.043L792.183 493.2H796.383L797.243 489.2H798.983L798.123 493.2H800.903V494.8H797.783ZM796.043 494.8H791.843L791.083 498.4H795.283L796.043 494.8ZM803.2 493.18C803.293 491.953 803.767 490.993 804.62 490.3C805.473 489.607 806.58 489.26 807.94 489.26C808.847 489.26 809.627 489.427 810.28 489.76C810.947 490.08 811.447 490.52 811.78 491.08C812.127 491.64 812.3 492.273 812.3 492.98C812.3 493.807 812.06 494.52 811.58 495.12C811.113 495.72 810.5 496.107 809.74 496.28V496.38C810.607 496.593 811.293 497.013 811.8 497.64C812.307 498.267 812.56 499.087 812.56 500.1C812.56 500.86 812.387 501.547 812.04 502.16C811.693 502.76 811.173 503.233 810.48 503.58C809.787 503.927 808.953 504.1 807.98 504.1C806.567 504.1 805.407 503.733 804.5 503C803.593 502.253 803.087 501.2 802.98 499.84H804.74C804.833 500.64 805.16 501.293 805.72 501.8C806.28 502.307 807.027 502.56 807.96 502.56C808.893 502.56 809.6 502.32 810.08 501.84C810.573 501.347 810.82 500.713 810.82 499.94C810.82 498.94 810.487 498.22 809.82 497.78C809.153 497.34 808.147 497.12 806.8 497.12H806.34V495.6H806.82C808.047 495.587 808.973 495.387 809.6 495C810.227 494.6 810.54 493.987 810.54 493.16C810.54 492.453 810.307 491.887 809.84 491.46C809.387 491.033 808.733 490.82 807.88 490.82C807.053 490.82 806.387 491.033 805.88 491.46C805.373 491.887 805.073 492.46 804.98 493.18H803.2ZM814.537 491.2V489.54H818.297V504H816.457V491.2H814.537ZM821.204 502.54C822.897 501.18 824.224 500.067 825.184 499.2C826.144 498.32 826.95 497.407 827.604 496.46C828.27 495.5 828.604 494.56 828.604 493.64C828.604 492.773 828.39 492.093 827.964 491.6C827.55 491.093 826.877 490.84 825.944 490.84C825.037 490.84 824.33 491.127 823.824 491.7C823.33 492.26 823.064 493.013 823.024 493.96H821.264C821.317 492.467 821.77 491.313 822.624 490.5C823.477 489.687 824.577 489.28 825.924 489.28C827.297 489.28 828.384 489.66 829.184 490.42C829.997 491.18 830.404 492.227 830.404 493.56C830.404 494.667 830.07 495.747 829.404 496.8C828.75 497.84 828.004 498.76 827.164 499.56C826.324 500.347 825.25 501.267 823.944 502.32H830.824V503.84H821.204V502.54ZM841.108 490.06V491.54H835.048V496.24H839.968V497.72H835.048V504H833.228V490.06H841.108ZM842.966 493.18C843.059 491.953 843.532 490.993 844.386 490.3C845.239 489.607 846.346 489.26 847.706 489.26C848.612 489.26 849.392 489.427 850.046 489.76C850.712 490.08 851.212 490.52 851.546 491.08C851.892 491.64 852.066 492.273 852.066 492.98C852.066 493.807 851.826 494.52 851.346 495.12C850.879 495.72 850.266 496.107 849.506 496.28V496.38C850.372 496.593 851.059 497.013 851.566 497.64C852.072 498.267 852.326 499.087 852.326 500.1C852.326 500.86 852.152 501.547 851.806 502.16C851.459 502.76 850.939 503.233 850.246 503.58C849.552 503.927 848.719 504.1 847.746 504.1C846.332 504.1 845.172 503.733 844.266 503C843.359 502.253 842.852 501.2 842.746 499.84H844.506C844.599 500.64 844.926 501.293 845.486 501.8C846.046 502.307 846.792 502.56 847.726 502.56C848.659 502.56 849.366 502.32 849.846 501.84C850.339 501.347 850.586 500.713 850.586 499.94C850.586 498.94 850.252 498.22 849.586 497.78C848.919 497.34 847.912 497.12 846.566 497.12H846.106V495.6H846.586C847.812 495.587 848.739 495.387 849.366 495C849.992 494.6 850.306 493.987 850.306 493.16C850.306 492.453 850.072 491.887 849.606 491.46C849.152 491.033 848.499 490.82 847.646 490.82C846.819 490.82 846.152 491.033 845.646 491.46C845.139 491.887 844.839 492.46 844.746 493.18H842.966ZM856.903 491.54V496.2H861.983V497.7H856.903V502.5H862.583V504H855.083V490.04H862.583V491.54H856.903Z" fill="white"/>
<path d="M1002.9 494.8L1002.14 498.4H1004.9V500H1001.8L1000.94 504H999.198L1000.06 500H995.858L994.998 504H993.258L994.118 500H990.978V498.4H994.458L995.218 494.8H992.118V493.2H995.558L996.418 489.2H998.158L997.298 493.2H1001.5L1002.36 489.2H1004.1L1003.24 493.2H1006.02V494.8H1002.9ZM1001.16 494.8H996.958L996.198 498.4H1000.4L1001.16 494.8ZM1010.48 491.54V496.2H1015.56V497.7H1010.48V502.5H1016.16V504H1008.66V490.04H1016.16V491.54H1010.48ZM1018.61 496.62C1018.61 494.327 1018.98 492.54 1019.73 491.26C1020.48 489.967 1021.78 489.32 1023.65 489.32C1025.5 489.32 1026.8 489.967 1027.55 491.26C1028.3 492.54 1028.67 494.327 1028.67 496.62C1028.67 498.953 1028.3 500.767 1027.55 502.06C1026.8 503.353 1025.5 504 1023.65 504C1021.78 504 1020.48 503.353 1019.73 502.06C1018.98 500.767 1018.61 498.953 1018.61 496.62ZM1026.87 496.62C1026.87 495.46 1026.79 494.48 1026.63 493.68C1026.48 492.867 1026.17 492.213 1025.69 491.72C1025.22 491.227 1024.54 490.98 1023.65 490.98C1022.74 490.98 1022.05 491.227 1021.57 491.72C1021.1 492.213 1020.79 492.867 1020.63 493.68C1020.48 494.48 1020.41 495.46 1020.41 496.62C1020.41 497.82 1020.48 498.827 1020.63 499.64C1020.79 500.453 1021.1 501.107 1021.57 501.6C1022.05 502.093 1022.74 502.34 1023.65 502.34C1024.54 502.34 1025.22 502.093 1025.69 501.6C1026.17 501.107 1026.48 500.453 1026.63 499.64C1026.79 498.827 1026.87 497.82 1026.87 496.62ZM1031.17 496.62C1031.17 494.327 1031.54 492.54 1032.29 491.26C1033.03 489.967 1034.34 489.32 1036.21 489.32C1038.06 489.32 1039.36 489.967 1040.11 491.26C1040.85 492.54 1041.23 494.327 1041.23 496.62C1041.23 498.953 1040.85 500.767 1040.11 502.06C1039.36 503.353 1038.06 504 1036.21 504C1034.34 504 1033.03 503.353 1032.29 502.06C1031.54 500.767 1031.17 498.953 1031.17 496.62ZM1039.43 496.62C1039.43 495.46 1039.35 494.48 1039.19 493.68C1039.04 492.867 1038.73 492.213 1038.25 491.72C1037.78 491.227 1037.1 490.98 1036.21 490.98C1035.3 490.98 1034.61 491.227 1034.13 491.72C1033.66 492.213 1033.35 492.867 1033.19 493.68C1033.04 494.48 1032.97 495.46 1032.97 496.62C1032.97 497.82 1033.04 498.827 1033.19 499.64C1033.35 500.453 1033.66 501.107 1034.13 501.6C1034.61 502.093 1035.3 502.34 1036.21 502.34C1037.1 502.34 1037.78 502.093 1038.25 501.6C1038.73 501.107 1039.04 500.453 1039.19 499.64C1039.35 498.827 1039.43 497.82 1039.43 496.62ZM1051.91 490.06V491.54H1045.85V496.24H1050.77V497.72H1045.85V504H1044.03V490.06H1051.91ZM1053.8 496.62C1053.8 494.327 1054.18 492.54 1054.92 491.26C1055.67 489.967 1056.98 489.32 1058.84 489.32C1060.7 489.32 1062 489.967 1062.74 491.26C1063.49 492.54 1063.86 494.327 1063.86 496.62C1063.86 498.953 1063.49 500.767 1062.74 502.06C1062 503.353 1060.7 504 1058.84 504C1056.98 504 1055.67 503.353 1054.92 502.06C1054.18 500.767 1053.8 498.953 1053.8 496.62ZM1062.06 496.62C1062.06 495.46 1061.98 494.48 1061.82 493.68C1061.68 492.867 1061.36 492.213 1060.88 491.72C1060.42 491.227 1059.74 490.98 1058.84 490.98C1057.94 490.98 1057.24 491.227 1056.76 491.72C1056.3 492.213 1055.98 492.867 1055.82 493.68C1055.68 494.48 1055.6 495.46 1055.6 496.62C1055.6 497.82 1055.68 498.827 1055.82 499.64C1055.98 500.453 1056.3 501.107 1056.76 501.6C1057.24 502.093 1057.94 502.34 1058.84 502.34C1059.74 502.34 1060.42 502.093 1060.88 501.6C1061.36 501.107 1061.68 500.453 1061.82 499.64C1061.98 498.827 1062.06 497.82 1062.06 496.62ZM1066.36 496.62C1066.36 494.327 1066.74 492.54 1067.48 491.26C1068.23 489.967 1069.54 489.32 1071.4 489.32C1073.26 489.32 1074.56 489.967 1075.3 491.26C1076.05 492.54 1076.42 494.327 1076.42 496.62C1076.42 498.953 1076.05 500.767 1075.3 502.06C1074.56 503.353 1073.26 504 1071.4 504C1069.54 504 1068.23 503.353 1067.48 502.06C1066.74 500.767 1066.36 498.953 1066.36 496.62ZM1074.62 496.62C1074.62 495.46 1074.54 494.48 1074.38 493.68C1074.24 492.867 1073.92 492.213 1073.44 491.72C1072.98 491.227 1072.3 490.98 1071.4 490.98C1070.5 490.98 1069.8 491.227 1069.32 491.72C1068.86 492.213 1068.54 492.867 1068.38 493.68C1068.24 494.48 1068.16 495.46 1068.16 496.62C1068.16 497.82 1068.24 498.827 1068.38 499.64C1068.54 500.453 1068.86 501.107 1069.32 501.6C1069.8 502.093 1070.5 502.34 1071.4 502.34C1072.3 502.34 1072.98 502.093 1073.44 501.6C1073.92 501.107 1074.24 500.453 1074.38 499.64C1074.54 498.827 1074.62 497.82 1074.62 496.62Z" fill="white"/>
<path d="M1211.97 494.8L1211.21 498.4H1213.97V500H1210.87L1210.01 504H1208.27L1209.13 500H1204.93L1204.07 504H1202.33L1203.19 500H1200.05V498.4H1203.53L1204.29 494.8H1201.19V493.2H1204.63L1205.49 489.2H1207.23L1206.37 493.2H1210.57L1211.43 489.2H1213.17L1212.31 493.2H1215.09V494.8H1211.97ZM1210.23 494.8H1206.03L1205.27 498.4H1209.47L1210.23 494.8ZM1217.42 496.62C1217.42 494.327 1217.8 492.54 1218.54 491.26C1219.29 489.967 1220.6 489.32 1222.46 489.32C1224.32 489.32 1225.62 489.967 1226.36 491.26C1227.11 492.54 1227.48 494.327 1227.48 496.62C1227.48 498.953 1227.11 500.767 1226.36 502.06C1225.62 503.353 1224.32 504 1222.46 504C1220.6 504 1219.29 503.353 1218.54 502.06C1217.8 500.767 1217.42 498.953 1217.42 496.62ZM1225.68 496.62C1225.68 495.46 1225.6 494.48 1225.44 493.68C1225.3 492.867 1224.98 492.213 1224.5 491.72C1224.04 491.227 1223.36 490.98 1222.46 490.98C1221.56 490.98 1220.86 491.227 1220.38 491.72C1219.92 492.213 1219.6 492.867 1219.44 493.68C1219.3 494.48 1219.22 495.46 1219.22 496.62C1219.22 497.82 1219.3 498.827 1219.44 499.64C1219.6 500.453 1219.92 501.107 1220.38 501.6C1220.86 502.093 1221.56 502.34 1222.46 502.34C1223.36 502.34 1224.04 502.093 1224.5 501.6C1224.98 501.107 1225.3 500.453 1225.44 499.64C1225.6 498.827 1225.68 497.82 1225.68 496.62ZM1229.98 496.62C1229.98 494.327 1230.36 492.54 1231.1 491.26C1231.85 489.967 1233.16 489.32 1235.02 489.32C1236.88 489.32 1238.18 489.967 1238.92 491.26C1239.67 492.54 1240.04 494.327 1240.04 496.62C1240.04 498.953 1239.67 500.767 1238.92 502.06C1238.18 503.353 1236.88 504 1235.02 504C1233.16 504 1231.85 503.353 1231.1 502.06C1230.36 500.767 1229.98 498.953 1229.98 496.62ZM1238.24 496.62C1238.24 495.46 1238.16 494.48 1238 493.68C1237.86 492.867 1237.54 492.213 1237.06 491.72C1236.6 491.227 1235.92 490.98 1235.02 490.98C1234.12 490.98 1233.42 491.227 1232.94 491.72C1232.48 492.213 1232.16 492.867 1232 493.68C1231.86 494.48 1231.78 495.46 1231.78 496.62C1231.78 497.82 1231.86 498.827 1232 499.64C1232.16 500.453 1232.48 501.107 1232.94 501.6C1233.42 502.093 1234.12 502.34 1235.02 502.34C1235.92 502.34 1236.6 502.093 1237.06 501.6C1237.54 501.107 1237.86 500.453 1238 499.64C1238.16 498.827 1238.24 497.82 1238.24 496.62ZM1247.18 490.06C1248.7 490.06 1250.01 490.347 1251.12 490.92C1252.24 491.48 1253.09 492.287 1253.68 493.34C1254.28 494.393 1254.58 495.633 1254.58 497.06C1254.58 498.487 1254.28 499.727 1253.68 500.78C1253.09 501.82 1252.24 502.62 1251.12 503.18C1250.01 503.727 1248.7 504 1247.18 504H1242.84V490.06H1247.18ZM1247.18 502.5C1248.98 502.5 1250.35 502.027 1251.3 501.08C1252.25 500.12 1252.72 498.78 1252.72 497.06C1252.72 495.327 1252.24 493.973 1251.28 493C1250.33 492.027 1248.97 491.54 1247.18 491.54H1244.66V502.5H1247.18ZM1256.64 493.18C1256.73 491.953 1257.21 490.993 1258.06 490.3C1258.91 489.607 1260.02 489.26 1261.38 489.26C1262.29 489.26 1263.07 489.427 1263.72 489.76C1264.39 490.08 1264.89 490.52 1265.22 491.08C1265.57 491.64 1265.74 492.273 1265.74 492.98C1265.74 493.807 1265.5 494.52 1265.02 495.12C1264.55 495.72 1263.94 496.107 1263.18 496.28V496.38C1264.05 496.593 1264.73 497.013 1265.24 497.64C1265.75 498.267 1266 499.087 1266 500.1C1266 500.86 1265.83 501.547 1265.48 502.16C1265.13 502.76 1264.61 503.233 1263.92 503.58C1263.23 503.927 1262.39 504.1 1261.42 504.1C1260.01 504.1 1258.85 503.733 1257.94 503C1257.03 502.253 1256.53 501.2 1256.42 499.84H1258.18C1258.27 500.64 1258.6 501.293 1259.16 501.8C1259.72 502.307 1260.47 502.56 1261.4 502.56C1262.33 502.56 1263.04 502.32 1263.52 501.84C1264.01 501.347 1264.26 500.713 1264.26 499.94C1264.26 498.94 1263.93 498.22 1263.26 497.78C1262.59 497.34 1261.59 497.12 1260.24 497.12H1259.78V495.6H1260.26C1261.49 495.587 1262.41 495.387 1263.04 495C1263.67 494.6 1263.98 493.987 1263.98 493.16C1263.98 492.453 1263.75 491.887 1263.28 491.46C1262.83 491.033 1262.17 490.82 1261.32 490.82C1260.49 490.82 1259.83 491.033 1259.32 491.46C1258.81 491.887 1258.51 492.46 1258.42 493.18H1256.64ZM1277.36 490.96L1271.8 504H1269.96L1275.6 491.14H1267.88V489.58H1277.36V490.96ZM1287.92 500.9H1281.84L1280.72 504H1278.8L1283.84 490.14H1285.94L1290.96 504H1289.04L1287.92 500.9ZM1287.4 499.42L1284.88 492.38L1282.36 499.42H1287.4Z" fill="#312F3E"/>
<path d="M585.024 360.9H578.944L577.824 364H575.904L580.944 350.14H583.044L588.064 364H586.144L585.024 360.9ZM584.504 359.42L581.984 352.38L579.464 359.42H584.504ZM589.581 357.02C589.581 355.66 589.887 354.44 590.501 353.36C591.114 352.267 591.947 351.413 593.001 350.8C594.067 350.187 595.247 349.88 596.541 349.88C598.061 349.88 599.387 350.247 600.521 350.98C601.654 351.713 602.481 352.753 603.001 354.1H600.821C600.434 353.26 599.874 352.613 599.141 352.16C598.421 351.707 597.554 351.48 596.541 351.48C595.567 351.48 594.694 351.707 593.921 352.16C593.147 352.613 592.541 353.26 592.101 354.1C591.661 354.927 591.441 355.9 591.441 357.02C591.441 358.127 591.661 359.1 592.101 359.94C592.541 360.767 593.147 361.407 593.921 361.86C594.694 362.313 595.567 362.54 596.541 362.54C597.554 362.54 598.421 362.32 599.141 361.88C599.874 361.427 600.434 360.78 600.821 359.94H603.001C602.481 361.273 601.654 362.307 600.521 363.04C599.387 363.76 598.061 364.12 596.541 364.12C595.247 364.12 594.067 363.82 593.001 363.22C591.947 362.607 591.114 361.76 590.501 360.68C589.887 359.6 589.581 358.38 589.581 357.02ZM605.03 357.02C605.03 355.66 605.337 354.44 605.95 353.36C606.563 352.267 607.397 351.413 608.45 350.8C609.517 350.187 610.697 349.88 611.99 349.88C613.51 349.88 614.837 350.247 615.97 350.98C617.103 351.713 617.93 352.753 618.45 354.1H616.27C615.883 353.26 615.323 352.613 614.59 352.16C613.87 351.707 613.003 351.48 611.99 351.48C611.017 351.48 610.143 351.707 609.37 352.16C608.597 352.613 607.99 353.26 607.55 354.1C607.11 354.927 606.89 355.9 606.89 357.02C606.89 358.127 607.11 359.1 607.55 359.94C607.99 360.767 608.597 361.407 609.37 361.86C610.143 362.313 611.017 362.54 611.99 362.54C613.003 362.54 613.87 362.32 614.59 361.88C615.323 361.427 615.883 360.78 616.27 359.94H618.45C617.93 361.273 617.103 362.307 615.97 363.04C614.837 363.76 613.51 364.12 611.99 364.12C610.697 364.12 609.517 363.82 608.45 363.22C607.397 362.607 606.563 361.76 605.95 360.68C605.337 359.6 605.03 358.38 605.03 357.02ZM622.979 351.54V356.2H628.059V357.7H622.979V362.5H628.659V364H621.159V350.04H628.659V351.54H622.979ZM642.373 364H640.553L633.233 352.9V364H631.413V350.04H633.233L640.553 361.12V350.04H642.373V364ZM654.056 350.06V351.54H650.256V364H648.436V351.54H644.616V350.06H654.056Z" fill="#312F3E"/>
<path d="M1007.18 350.06L1003.14 364H1001.1L997.855 352.78L994.495 364L992.475 364.02L988.575 350.06H990.515L993.555 361.88L996.915 350.06H998.955L1002.16 361.84L1005.22 350.06H1007.18ZM1017.41 360.9H1011.33L1010.21 364H1008.29L1013.33 350.14H1015.43L1020.45 364H1018.53L1017.41 360.9ZM1016.89 359.42L1014.37 352.38L1011.85 359.42H1016.89ZM1029.98 364L1026.66 358.3H1024.46V364H1022.64V350.06H1027.14C1028.2 350.06 1029.08 350.24 1029.8 350.6C1030.54 350.96 1031.08 351.447 1031.44 352.06C1031.8 352.673 1031.98 353.373 1031.98 354.16C1031.98 355.12 1031.7 355.967 1031.14 356.7C1030.6 357.433 1029.77 357.92 1028.66 358.16L1032.16 364H1029.98ZM1024.46 356.84H1027.14C1028.13 356.84 1028.87 356.6 1029.36 356.12C1029.86 355.627 1030.1 354.973 1030.1 354.16C1030.1 353.333 1029.86 352.693 1029.36 352.24C1028.88 351.787 1028.14 351.56 1027.14 351.56H1024.46V356.84ZM1045.77 364H1043.95L1036.63 352.9V364H1034.81V350.04H1036.63L1043.95 361.12V350.04H1045.77V364ZM1050.69 350.06V364H1048.87V350.06H1050.69ZM1064.76 364H1062.94L1055.62 352.9V364H1053.8V350.04H1055.62L1062.94 361.12V350.04H1064.76V364ZM1078.42 354.1C1078.03 353.287 1077.47 352.66 1076.74 352.22C1076.01 351.767 1075.15 351.54 1074.18 351.54C1073.21 351.54 1072.33 351.767 1071.54 352.22C1070.77 352.66 1070.15 353.3 1069.7 354.14C1069.26 354.967 1069.04 355.927 1069.04 357.02C1069.04 358.113 1069.26 359.073 1069.7 359.9C1070.15 360.727 1070.77 361.367 1071.54 361.82C1072.33 362.26 1073.21 362.48 1074.18 362.48C1075.54 362.48 1076.66 362.073 1077.54 361.26C1078.42 360.447 1078.93 359.347 1079.08 357.96H1073.52V356.48H1081.02V357.88C1080.91 359.027 1080.55 360.08 1079.94 361.04C1079.33 361.987 1078.52 362.74 1077.52 363.3C1076.52 363.847 1075.41 364.12 1074.18 364.12C1072.89 364.12 1071.71 363.82 1070.64 363.22C1069.57 362.607 1068.73 361.76 1068.1 360.68C1067.49 359.6 1067.18 358.38 1067.18 357.02C1067.18 355.66 1067.49 354.44 1068.1 353.36C1068.73 352.267 1069.57 351.42 1070.64 350.82C1071.71 350.207 1072.89 349.9 1074.18 349.9C1075.66 349.9 1076.97 350.267 1078.1 351C1079.25 351.733 1080.08 352.767 1080.6 354.1H1078.42Z" fill="white"/>
<path d="M1206.03 364.14C1205.11 364.14 1204.28 363.98 1203.55 363.66C1202.83 363.327 1202.26 362.873 1201.85 362.3C1201.44 361.713 1201.22 361.04 1201.21 360.28H1203.15C1203.22 360.933 1203.48 361.487 1203.95 361.94C1204.43 362.38 1205.12 362.6 1206.03 362.6C1206.9 362.6 1207.58 362.387 1208.07 361.96C1208.58 361.52 1208.83 360.96 1208.83 360.28C1208.83 359.747 1208.68 359.313 1208.39 358.98C1208.1 358.647 1207.73 358.393 1207.29 358.22C1206.85 358.047 1206.26 357.86 1205.51 357.66C1204.59 357.42 1203.85 357.18 1203.29 356.94C1202.74 356.7 1202.27 356.327 1201.87 355.82C1201.48 355.3 1201.29 354.607 1201.29 353.74C1201.29 352.98 1201.48 352.307 1201.87 351.72C1202.26 351.133 1202.8 350.68 1203.49 350.36C1204.2 350.04 1205 349.88 1205.91 349.88C1207.22 349.88 1208.28 350.207 1209.11 350.86C1209.95 351.513 1210.42 352.38 1210.53 353.46H1208.53C1208.46 352.927 1208.18 352.46 1207.69 352.06C1207.2 351.647 1206.54 351.44 1205.73 351.44C1204.97 351.44 1204.35 351.64 1203.87 352.04C1203.39 352.427 1203.15 352.973 1203.15 353.68C1203.15 354.187 1203.29 354.6 1203.57 354.92C1203.86 355.24 1204.22 355.487 1204.63 355.66C1205.06 355.82 1205.65 356.007 1206.41 356.22C1207.33 356.473 1208.07 356.727 1208.63 356.98C1209.19 357.22 1209.67 357.6 1210.07 358.12C1210.47 358.627 1210.67 359.32 1210.67 360.2C1210.67 360.88 1210.49 361.52 1210.13 362.12C1209.77 362.72 1209.24 363.207 1208.53 363.58C1207.82 363.953 1206.99 364.14 1206.03 364.14ZM1215.13 350.06V358.88C1215.13 360.12 1215.43 361.04 1216.03 361.64C1216.64 362.24 1217.49 362.54 1218.57 362.54C1219.63 362.54 1220.47 362.24 1221.07 361.64C1221.68 361.04 1221.99 360.12 1221.99 358.88V350.06H1223.81V358.86C1223.81 360.02 1223.57 361 1223.11 361.8C1222.64 362.587 1222.01 363.173 1221.21 363.56C1220.42 363.947 1219.53 364.14 1218.55 364.14C1217.56 364.14 1216.67 363.947 1215.87 363.56C1215.08 363.173 1214.45 362.587 1213.99 361.8C1213.53 361 1213.31 360.02 1213.31 358.86V350.06H1215.13ZM1226.16 357.02C1226.16 355.66 1226.47 354.44 1227.08 353.36C1227.7 352.267 1228.53 351.413 1229.58 350.8C1230.65 350.187 1231.83 349.88 1233.12 349.88C1234.64 349.88 1235.97 350.247 1237.1 350.98C1238.24 351.713 1239.06 352.753 1239.58 354.1H1237.4C1237.02 353.26 1236.46 352.613 1235.72 352.16C1235 351.707 1234.14 351.48 1233.12 351.48C1232.15 351.48 1231.28 351.707 1230.5 352.16C1229.73 352.613 1229.12 353.26 1228.68 354.1C1228.24 354.927 1228.02 355.9 1228.02 357.02C1228.02 358.127 1228.24 359.1 1228.68 359.94C1229.12 360.767 1229.73 361.407 1230.5 361.86C1231.28 362.313 1232.15 362.54 1233.12 362.54C1234.14 362.54 1235 362.32 1235.72 361.88C1236.46 361.427 1237.02 360.78 1237.4 359.94H1239.58C1239.06 361.273 1238.24 362.307 1237.1 363.04C1235.97 363.76 1234.64 364.12 1233.12 364.12C1231.83 364.12 1230.65 363.82 1229.58 363.22C1228.53 362.607 1227.7 361.76 1227.08 360.68C1226.47 359.6 1226.16 358.38 1226.16 357.02ZM1241.61 357.02C1241.61 355.66 1241.92 354.44 1242.53 353.36C1243.15 352.267 1243.98 351.413 1245.03 350.8C1246.1 350.187 1247.28 349.88 1248.57 349.88C1250.09 349.88 1251.42 350.247 1252.55 350.98C1253.69 351.713 1254.51 352.753 1255.03 354.1H1252.85C1252.47 353.26 1251.91 352.613 1251.17 352.16C1250.45 351.707 1249.59 351.48 1248.57 351.48C1247.6 351.48 1246.73 351.707 1245.95 352.16C1245.18 352.613 1244.57 353.26 1244.13 354.1C1243.69 354.927 1243.47 355.9 1243.47 357.02C1243.47 358.127 1243.69 359.1 1244.13 359.94C1244.57 360.767 1245.18 361.407 1245.95 361.86C1246.73 362.313 1247.6 362.54 1248.57 362.54C1249.59 362.54 1250.45 362.32 1251.17 361.88C1251.91 361.427 1252.47 360.78 1252.85 359.94H1255.03C1254.51 361.273 1253.69 362.307 1252.55 363.04C1251.42 363.76 1250.09 364.12 1248.57 364.12C1247.28 364.12 1246.1 363.82 1245.03 363.22C1243.98 362.607 1243.15 361.76 1242.53 360.68C1241.92 359.6 1241.61 358.38 1241.61 357.02ZM1259.56 351.54V356.2H1264.64V357.7H1259.56V362.5H1265.24V364H1257.74V350.04H1265.24V351.54H1259.56ZM1272.42 364.14C1271.5 364.14 1270.67 363.98 1269.94 363.66C1269.22 363.327 1268.65 362.873 1268.24 362.3C1267.82 361.713 1267.61 361.04 1267.6 360.28H1269.54C1269.6 360.933 1269.87 361.487 1270.34 361.94C1270.82 362.38 1271.51 362.6 1272.42 362.6C1273.28 362.6 1273.96 362.387 1274.46 361.96C1274.96 361.52 1275.22 360.96 1275.22 360.28C1275.22 359.747 1275.07 359.313 1274.78 358.98C1274.48 358.647 1274.12 358.393 1273.68 358.22C1273.24 358.047 1272.64 357.86 1271.9 357.66C1270.98 357.42 1270.24 357.18 1269.68 356.94C1269.13 356.7 1268.66 356.327 1268.26 355.82C1267.87 355.3 1267.68 354.607 1267.68 353.74C1267.68 352.98 1267.87 352.307 1268.26 351.72C1268.64 351.133 1269.18 350.68 1269.88 350.36C1270.58 350.04 1271.39 349.88 1272.3 349.88C1273.6 349.88 1274.67 350.207 1275.5 350.86C1276.34 351.513 1276.81 352.38 1276.92 353.46H1274.92C1274.85 352.927 1274.57 352.46 1274.08 352.06C1273.58 351.647 1272.93 351.44 1272.12 351.44C1271.36 351.44 1270.74 351.64 1270.26 352.04C1269.78 352.427 1269.54 352.973 1269.54 353.68C1269.54 354.187 1269.68 354.6 1269.96 354.92C1270.25 355.24 1270.6 355.487 1271.02 355.66C1271.44 355.82 1272.04 356.007 1272.8 356.22C1273.72 356.473 1274.46 356.727 1275.02 356.98C1275.58 357.22 1276.06 357.6 1276.46 358.12C1276.86 358.627 1277.06 359.32 1277.06 360.2C1277.06 360.88 1276.88 361.52 1276.52 362.12C1276.16 362.72 1275.62 363.207 1274.92 363.58C1274.21 363.953 1273.38 364.14 1272.42 364.14ZM1284.15 364.14C1283.23 364.14 1282.41 363.98 1281.67 363.66C1280.95 363.327 1280.39 362.873 1279.97 362.3C1279.56 361.713 1279.35 361.04 1279.33 360.28H1281.27C1281.34 360.933 1281.61 361.487 1282.07 361.94C1282.55 362.38 1283.25 362.6 1284.15 362.6C1285.02 362.6 1285.7 362.387 1286.19 361.96C1286.7 361.52 1286.95 360.96 1286.95 360.28C1286.95 359.747 1286.81 359.313 1286.51 358.98C1286.22 358.647 1285.85 358.393 1285.41 358.22C1284.97 358.047 1284.38 357.86 1283.63 357.66C1282.71 357.42 1281.97 357.18 1281.41 356.94C1280.87 356.7 1280.39 356.327 1279.99 355.82C1279.61 355.3 1279.41 354.607 1279.41 353.74C1279.41 352.98 1279.61 352.307 1279.99 351.72C1280.38 351.133 1280.92 350.68 1281.61 350.36C1282.32 350.04 1283.13 349.88 1284.03 349.88C1285.34 349.88 1286.41 350.207 1287.23 350.86C1288.07 351.513 1288.55 352.38 1288.65 353.46H1286.65C1286.59 352.927 1286.31 352.46 1285.81 352.06C1285.32 351.647 1284.67 351.44 1283.85 351.44C1283.09 351.44 1282.47 351.64 1281.99 352.04C1281.51 352.427 1281.27 352.973 1281.27 353.68C1281.27 354.187 1281.41 354.6 1281.69 354.92C1281.99 355.24 1282.34 355.487 1282.75 355.66C1283.18 355.82 1283.77 356.007 1284.53 356.22C1285.45 356.473 1286.19 356.727 1286.75 356.98C1287.31 357.22 1287.79 357.6 1288.19 358.12C1288.59 358.627 1288.79 359.32 1288.79 360.2C1288.79 360.88 1288.61 361.52 1288.25 362.12C1287.89 362.72 1287.36 363.207 1286.65 363.58C1285.95 363.953 1285.11 364.14 1284.15 364.14Z" fill="black"/>
<path d="M60.8441 141.2C60.8441 137.904 61.5801 134.96 63.0521 132.368C64.5561 129.744 66.5881 127.712 69.1481 126.272C71.7401 124.8 74.6361 124.064 77.8361 124.064C81.5801 124.064 84.8601 125.024 87.6761 126.944C90.4921 128.864 92.4601 131.52 93.5801 134.912H85.8521C85.0841 133.312 83.9961 132.112 82.5881 131.312C81.2121 130.512 79.6121 130.112 77.7881 130.112C75.8361 130.112 74.0921 130.576 72.5561 131.504C71.0521 132.4 69.8681 133.68 69.0041 135.344C68.1721 137.008 67.7561 138.96 67.7561 141.2C67.7561 143.408 68.1721 145.36 69.0041 147.056C69.8681 148.72 71.0521 150.016 72.5561 150.944C74.0921 151.84 75.8361 152.288 77.7881 152.288C79.6121 152.288 81.2121 151.888 82.5881 151.088C83.9961 150.256 85.0841 149.04 85.8521 147.44H93.5801C92.4601 150.864 90.4921 153.536 87.6761 155.456C84.8921 157.344 81.6121 158.288 77.8361 158.288C74.6361 158.288 71.7401 157.568 69.1481 156.128C66.5881 154.656 64.5561 152.624 63.0521 150.032C61.5801 147.44 60.8441 144.496 60.8441 141.2ZM111.128 158.432C108.568 158.432 106.264 157.872 104.216 156.752C102.168 155.6 100.552 153.984 99.3678 151.904C98.2158 149.824 97.6398 147.424 97.6398 144.704C97.6398 141.984 98.2318 139.584 99.4158 137.504C100.632 135.424 102.28 133.824 104.36 132.704C106.44 131.552 108.76 130.976 111.32 130.976C113.88 130.976 116.2 131.552 118.28 132.704C120.36 133.824 121.992 135.424 123.176 137.504C124.392 139.584 125 141.984 125 144.704C125 147.424 124.376 149.824 123.128 151.904C121.912 153.984 120.248 155.6 118.136 156.752C116.056 157.872 113.72 158.432 111.128 158.432ZM111.128 152.576C112.344 152.576 113.48 152.288 114.536 151.712C115.624 151.104 116.488 150.208 117.128 149.024C117.768 147.84 118.088 146.4 118.088 144.704C118.088 142.176 117.416 140.24 116.072 138.896C114.76 137.52 113.144 136.832 111.224 136.832C109.304 136.832 107.688 137.52 106.376 138.896C105.096 140.24 104.456 142.176 104.456 144.704C104.456 147.232 105.08 149.184 106.328 150.56C107.608 151.904 109.208 152.576 111.128 152.576ZM136.649 122.48V158H129.929V122.48H136.649ZM155.097 158.432C152.537 158.432 150.233 157.872 148.185 156.752C146.137 155.6 144.521 153.984 143.337 151.904C142.185 149.824 141.609 147.424 141.609 144.704C141.609 141.984 142.201 139.584 143.385 137.504C144.601 135.424 146.249 133.824 148.329 132.704C150.409 131.552 152.729 130.976 155.289 130.976C157.849 130.976 160.169 131.552 162.249 132.704C164.329 133.824 165.961 135.424 167.145 137.504C168.361 139.584 168.969 141.984 168.969 144.704C168.969 147.424 168.345 149.824 167.097 151.904C165.881 153.984 164.217 155.6 162.105 156.752C160.025 157.872 157.689 158.432 155.097 158.432ZM155.097 152.576C156.313 152.576 157.449 152.288 158.505 151.712C159.593 151.104 160.457 150.208 161.097 149.024C161.737 147.84 162.057 146.4 162.057 144.704C162.057 142.176 161.385 140.24 160.041 138.896C158.729 137.52 157.113 136.832 155.193 136.832C153.273 136.832 151.657 137.52 150.345 138.896C149.065 140.24 148.425 142.176 148.425 144.704C148.425 147.232 149.049 149.184 150.297 150.56C151.577 151.904 153.177 152.576 155.097 152.576ZM180.618 135.536C181.482 134.128 182.602 133.024 183.978 132.224C185.386 131.424 186.986 131.024 188.778 131.024V138.08H187.002C184.89 138.08 183.29 138.576 182.202 139.568C181.146 140.56 180.618 142.288 180.618 144.752V158H173.898V131.408H180.618V135.536ZM216.31 158.336C213.974 158.336 211.862 157.936 209.974 157.136C208.118 156.336 206.646 155.184 205.558 153.68C204.47 152.176 203.91 150.4 203.878 148.352H211.078C211.174 149.728 211.654 150.816 212.518 151.616C213.414 152.416 214.63 152.816 216.166 152.816C217.734 152.816 218.966 152.448 219.862 151.712C220.758 150.944 221.206 149.952 221.206 148.736C221.206 147.744 220.902 146.928 220.294 146.288C219.686 145.648 218.918 145.152 217.99 144.8C217.094 144.416 215.846 144 214.246 143.552C212.07 142.912 210.294 142.288 208.918 141.68C207.574 141.04 206.406 140.096 205.414 138.848C204.454 137.568 203.974 135.872 203.974 133.76C203.974 131.776 204.47 130.048 205.462 128.576C206.454 127.104 207.846 125.984 209.638 125.216C211.43 124.416 213.478 124.016 215.782 124.016C219.238 124.016 222.038 124.864 224.182 126.56C226.358 128.224 227.558 130.56 227.782 133.568H220.39C220.326 132.416 219.83 131.472 218.902 130.736C218.006 129.968 216.806 129.584 215.302 129.584C213.99 129.584 212.934 129.92 212.134 130.592C211.366 131.264 210.982 132.24 210.982 133.52C210.982 134.416 211.27 135.168 211.846 135.776C212.454 136.352 213.19 136.832 214.054 137.216C214.95 137.568 216.198 137.984 217.798 138.464C219.974 139.104 221.75 139.744 223.126 140.384C224.502 141.024 225.686 141.984 226.678 143.264C227.67 144.544 228.166 146.224 228.166 148.304C228.166 150.096 227.702 151.76 226.774 153.296C225.846 154.832 224.486 156.064 222.694 156.992C220.902 157.888 218.774 158.336 216.31 158.336ZM232.264 144.704C232.264 141.952 232.824 139.552 233.944 137.504C235.064 135.424 236.616 133.824 238.6 132.704C240.584 131.552 242.856 130.976 245.416 130.976C248.712 130.976 251.432 131.808 253.576 133.472C255.752 135.104 257.208 137.408 257.944 140.384H250.696C250.312 139.232 249.656 138.336 248.728 137.696C247.832 137.024 246.712 136.688 245.368 136.688C243.448 136.688 241.928 137.392 240.808 138.8C239.688 140.176 239.128 142.144 239.128 144.704C239.128 147.232 239.688 149.2 240.808 150.608C241.928 151.984 243.448 152.672 245.368 152.672C248.088 152.672 249.864 151.456 250.696 149.024H257.944C257.208 151.904 255.752 154.192 253.576 155.888C251.4 157.584 248.68 158.432 245.416 158.432C242.856 158.432 240.584 157.872 238.6 156.752C236.616 155.6 235.064 154 233.944 151.952C232.824 149.872 232.264 147.456 232.264 144.704ZM277.843 131.024C279.859 131.024 281.651 131.472 283.219 132.368C284.787 133.232 286.003 134.528 286.867 136.256C287.763 137.952 288.211 140 288.211 142.4V158H281.491V143.312C281.491 141.2 280.963 139.584 279.907 138.464C278.851 137.312 277.411 136.736 275.587 136.736C273.731 136.736 272.259 137.312 271.171 138.464C270.115 139.584 269.587 141.2 269.587 143.312V158H262.867V122.48H269.587V134.72C270.451 133.568 271.603 132.672 273.043 132.032C274.483 131.36 276.083 131.024 277.843 131.024ZM319.321 144.128C319.321 145.088 319.257 145.952 319.129 146.72H299.689C299.849 148.64 300.521 150.144 301.705 151.232C302.889 152.32 304.345 152.864 306.073 152.864C308.569 152.864 310.345 151.792 311.401 149.648H318.649C317.881 152.208 316.409 154.32 314.233 155.984C312.057 157.616 309.385 158.432 306.217 158.432C303.657 158.432 301.353 157.872 299.305 156.752C297.289 155.6 295.705 153.984 294.553 151.904C293.433 149.824 292.873 147.424 292.873 144.704C292.873 141.952 293.433 139.536 294.553 137.456C295.673 135.376 297.241 133.776 299.257 132.656C301.273 131.536 303.593 130.976 306.217 130.976C308.745 130.976 311.001 131.52 312.985 132.608C315.001 133.696 316.553 135.248 317.641 137.264C318.761 139.248 319.321 141.536 319.321 144.128ZM312.361 142.208C312.329 140.48 311.705 139.104 310.489 138.08C309.273 137.024 307.785 136.496 306.025 136.496C304.361 136.496 302.953 137.008 301.801 138.032C300.681 139.024 299.993 140.416 299.737 142.208H312.361ZM357.25 131.024C360.514 131.024 363.138 132.032 365.122 134.048C367.138 136.032 368.146 138.816 368.146 142.4V158H361.426V143.312C361.426 141.232 360.898 139.648 359.842 138.56C358.786 137.44 357.346 136.88 355.522 136.88C353.698 136.88 352.242 137.44 351.154 138.56C350.098 139.648 349.57 141.232 349.57 143.312V158H342.85V143.312C342.85 141.232 342.322 139.648 341.266 138.56C340.21 137.44 338.77 136.88 336.946 136.88C335.09 136.88 333.618 137.44 332.53 138.56C331.474 139.648 330.946 141.232 330.946 143.312V158H324.226V131.408H330.946V134.624C331.81 133.504 332.914 132.624 334.258 131.984C335.634 131.344 337.138 131.024 338.77 131.024C340.85 131.024 342.706 131.472 344.338 132.368C345.97 133.232 347.234 134.48 348.13 136.112C348.994 134.576 350.242 133.344 351.874 132.416C353.538 131.488 355.33 131.024 357.25 131.024ZM399.243 144.128C399.243 145.088 399.179 145.952 399.051 146.72H379.611C379.771 148.64 380.443 150.144 381.627 151.232C382.811 152.32 384.267 152.864 385.995 152.864C388.491 152.864 390.267 151.792 391.323 149.648H398.571C397.803 152.208 396.331 154.32 394.155 155.984C391.979 157.616 389.307 158.432 386.139 158.432C383.579 158.432 381.275 157.872 379.227 156.752C377.211 155.6 375.627 153.984 374.475 151.904C373.355 149.824 372.795 147.424 372.795 144.704C372.795 141.952 373.355 139.536 374.475 137.456C375.595 135.376 377.163 133.776 379.179 132.656C381.195 131.536 383.515 130.976 386.139 130.976C388.667 130.976 390.923 131.52 392.907 132.608C394.923 133.696 396.475 135.248 397.563 137.264C398.683 139.248 399.243 141.536 399.243 144.128ZM392.283 142.208C392.251 140.48 391.627 139.104 390.411 138.08C389.195 137.024 387.707 136.496 385.947 136.496C384.283 136.496 382.875 137.008 381.723 138.032C380.603 139.024 379.915 140.416 379.659 142.208H392.283Z" fill="black"/>
<path d="M806.397 354.1C806.01 353.287 805.45 352.66 804.717 352.22C803.984 351.767 803.13 351.54 802.157 351.54C801.184 351.54 800.304 351.767 799.517 352.22C798.744 352.66 798.13 353.3 797.677 354.14C797.237 354.967 797.017 355.927 797.017 357.02C797.017 358.113 797.237 359.073 797.677 359.9C798.13 360.727 798.744 361.367 799.517 361.82C800.304 362.26 801.184 362.48 802.157 362.48C803.517 362.48 804.637 362.073 805.517 361.26C806.397 360.447 806.91 359.347 807.057 357.96H801.497V356.48H808.997V357.88C808.89 359.027 808.53 360.08 807.917 361.04C807.304 361.987 806.497 362.74 805.497 363.3C804.497 363.847 803.384 364.12 802.157 364.12C800.864 364.12 799.684 363.82 798.617 363.22C797.55 362.607 796.704 361.76 796.077 360.68C795.464 359.6 795.157 358.38 795.157 357.02C795.157 355.66 795.464 354.44 796.077 353.36C796.704 352.267 797.55 351.42 798.617 350.82C799.684 350.207 800.864 349.9 802.157 349.9C803.637 349.9 804.944 350.267 806.077 351C807.224 351.733 808.057 352.767 808.577 354.1H806.397ZM818.743 364L815.423 358.3H813.223V364H811.403V350.06H815.903C816.957 350.06 817.843 350.24 818.563 350.6C819.297 350.96 819.843 351.447 820.203 352.06C820.563 352.673 820.743 353.373 820.743 354.16C820.743 355.12 820.463 355.967 819.903 356.7C819.357 357.433 818.53 357.92 817.423 358.16L820.923 364H818.743ZM813.223 356.84H815.903C816.89 356.84 817.63 356.6 818.123 356.12C818.617 355.627 818.863 354.973 818.863 354.16C818.863 353.333 818.617 352.693 818.123 352.24C817.643 351.787 816.903 351.56 815.903 351.56H813.223V356.84ZM825.391 351.54V356.2H830.471V357.7H825.391V362.5H831.071V364H823.571V350.04H831.071V351.54H825.391ZM843.585 350.06L839.045 358.74V364H837.225V358.74L832.665 350.06H834.685L838.125 357.12L841.565 350.06H843.585ZM849.925 364.14C849.005 364.14 848.178 363.98 847.445 363.66C846.725 363.327 846.158 362.873 845.745 362.3C845.332 361.713 845.118 361.04 845.105 360.28H847.045C847.112 360.933 847.378 361.487 847.845 361.94C848.325 362.38 849.018 362.6 849.925 362.6C850.792 362.6 851.472 362.387 851.965 361.96C852.472 361.52 852.725 360.96 852.725 360.28C852.725 359.747 852.578 359.313 852.285 358.98C851.992 358.647 851.625 358.393 851.185 358.22C850.745 358.047 850.152 357.86 849.405 357.66C848.485 357.42 847.745 357.18 847.185 356.94C846.638 356.7 846.165 356.327 845.765 355.82C845.378 355.3 845.185 354.607 845.185 353.74C845.185 352.98 845.378 352.307 845.765 351.72C846.152 351.133 846.692 350.68 847.385 350.36C848.092 350.04 848.898 349.88 849.805 349.88C851.112 349.88 852.178 350.207 853.005 350.86C853.845 351.513 854.318 352.38 854.425 353.46H852.425C852.358 352.927 852.078 352.46 851.585 352.06C851.092 351.647 850.438 351.44 849.625 351.44C848.865 351.44 848.245 351.64 847.765 352.04C847.285 352.427 847.045 352.973 847.045 353.68C847.045 354.187 847.185 354.6 847.465 354.92C847.758 355.24 848.112 355.487 848.525 355.66C848.952 355.82 849.545 356.007 850.305 356.22C851.225 356.473 851.965 356.727 852.525 356.98C853.085 357.22 853.565 357.6 853.965 358.12C854.365 358.627 854.565 359.32 854.565 360.2C854.565 360.88 854.385 361.52 854.025 362.12C853.665 362.72 853.132 363.207 852.425 363.58C851.718 363.953 850.885 364.14 849.925 364.14Z" fill="white"/>
<path d="M372.629 494.8L371.869 498.4H374.629V500H371.529L370.669 504H368.929L369.789 500H365.589L364.729 504H362.989L363.849 500H360.709V498.4H364.189L364.949 494.8H361.849V493.2H365.289L366.149 489.2H367.889L367.029 493.2H371.229L372.089 489.2H373.829L372.969 493.2H375.749V494.8H372.629ZM370.889 494.8H366.689L365.929 498.4H370.129L370.889 494.8ZM378.086 496.62C378.086 494.327 378.459 492.54 379.206 491.26C379.952 489.967 381.259 489.32 383.126 489.32C384.979 489.32 386.279 489.967 387.026 491.26C387.772 492.54 388.146 494.327 388.146 496.62C388.146 498.953 387.772 500.767 387.026 502.06C386.279 503.353 384.979 504 383.126 504C381.259 504 379.952 503.353 379.206 502.06C378.459 500.767 378.086 498.953 378.086 496.62ZM386.346 496.62C386.346 495.46 386.266 494.48 386.106 493.68C385.959 492.867 385.646 492.213 385.166 491.72C384.699 491.227 384.019 490.98 383.126 490.98C382.219 490.98 381.526 491.227 381.046 491.72C380.579 492.213 380.266 492.867 380.106 493.68C379.959 494.48 379.886 495.46 379.886 496.62C379.886 497.82 379.959 498.827 380.106 499.64C380.266 500.453 380.579 501.107 381.046 501.6C381.526 502.093 382.219 502.34 383.126 502.34C384.019 502.34 384.699 502.093 385.166 501.6C385.646 501.107 385.959 500.453 386.106 499.64C386.266 498.827 386.346 497.82 386.346 496.62ZM390.644 496.62C390.644 494.327 391.018 492.54 391.764 491.26C392.511 489.967 393.818 489.32 395.684 489.32C397.538 489.32 398.838 489.967 399.584 491.26C400.331 492.54 400.704 494.327 400.704 496.62C400.704 498.953 400.331 500.767 399.584 502.06C398.838 503.353 397.538 504 395.684 504C393.818 504 392.511 503.353 391.764 502.06C391.018 500.767 390.644 498.953 390.644 496.62ZM398.904 496.62C398.904 495.46 398.824 494.48 398.664 493.68C398.518 492.867 398.204 492.213 397.724 491.72C397.258 491.227 396.578 490.98 395.684 490.98C394.778 490.98 394.084 491.227 393.604 491.72C393.138 492.213 392.824 492.867 392.664 493.68C392.518 494.48 392.444 495.46 392.444 496.62C392.444 497.82 392.518 498.827 392.664 499.64C392.824 500.453 393.138 501.107 393.604 501.6C394.084 502.093 394.778 502.34 395.684 502.34C396.578 502.34 397.258 502.093 397.724 501.6C398.204 501.107 398.518 500.453 398.664 499.64C398.824 498.827 398.904 497.82 398.904 496.62ZM412.423 491.12H405.403V495.68C405.71 495.253 406.163 494.907 406.763 494.64C407.363 494.36 408.01 494.22 408.703 494.22C409.81 494.22 410.71 494.453 411.403 494.92C412.096 495.373 412.59 495.967 412.883 496.7C413.19 497.42 413.343 498.187 413.343 499C413.343 499.96 413.163 500.82 412.803 501.58C412.443 502.34 411.89 502.94 411.143 503.38C410.41 503.82 409.496 504.04 408.403 504.04C407.003 504.04 405.87 503.68 405.003 502.96C404.136 502.24 403.61 501.28 403.423 500.08H405.203C405.376 500.84 405.743 501.433 406.303 501.86C406.863 502.287 407.57 502.5 408.423 502.5C409.476 502.5 410.27 502.187 410.803 501.56C411.336 500.92 411.603 500.08 411.603 499.04C411.603 498 411.336 497.2 410.803 496.64C410.27 496.067 409.483 495.78 408.443 495.78C407.736 495.78 407.116 495.953 406.583 496.3C406.063 496.633 405.683 497.093 405.443 497.68H403.723V489.52H412.423V491.12ZM415.321 500.78V499.4L422.341 489.68H424.521V499.2H426.521V500.78H424.521V504H422.721V500.78H415.321ZM422.801 491.58L417.421 499.2H422.801V491.58ZM430.68 500.12C430.813 500.88 431.12 501.467 431.6 501.88C432.093 502.293 432.753 502.5 433.58 502.5C434.686 502.5 435.5 502.067 436.02 501.2C436.553 500.333 436.806 498.873 436.78 496.82C436.5 497.42 436.033 497.893 435.38 498.24C434.726 498.573 434 498.74 433.2 498.74C432.306 498.74 431.506 498.56 430.8 498.2C430.106 497.827 429.56 497.287 429.16 496.58C428.76 495.873 428.56 495.02 428.56 494.02C428.56 492.593 428.973 491.447 429.8 490.58C430.626 489.7 431.8 489.26 433.32 489.26C435.186 489.26 436.493 489.867 437.24 491.08C438 492.293 438.38 494.1 438.38 496.5C438.38 498.18 438.226 499.567 437.92 500.66C437.626 501.753 437.12 502.587 436.4 503.16C435.693 503.733 434.72 504.02 433.48 504.02C432.12 504.02 431.06 503.653 430.3 502.92C429.54 502.187 429.106 501.253 429 500.12H430.68ZM433.5 497.2C434.393 497.2 435.126 496.927 435.7 496.38C436.273 495.82 436.56 495.067 436.56 494.12C436.56 493.12 436.28 492.313 435.72 491.7C435.16 491.087 434.373 490.78 433.36 490.78C432.426 490.78 431.68 491.073 431.12 491.66C430.573 492.247 430.3 493.02 430.3 493.98C430.3 494.953 430.573 495.733 431.12 496.32C431.666 496.907 432.46 497.2 433.5 497.2ZM443.057 491.54V496.2H448.137V497.7H443.057V502.5H448.737V504H441.237V490.04H448.737V491.54H443.057Z" fill="white"/>
<g filter="url(#filter1_d)">
<circle cx="195" cy="625" r="75" fill="url(#paint0_linear)"/>
</g>
<g filter="url(#filter2_d)">
<circle cx="405" cy="625" r="75" fill="url(#paint1_linear)"/>
</g>
<g filter="url(#filter3_d)">
<circle cx="615" cy="625" r="75" fill="url(#paint2_linear)"/>
</g>
<g filter="url(#filter4_d)">
<circle cx="825" cy="625" r="75" fill="url(#paint3_linear)"/>
</g>
<g filter="url(#filter5_d)">
<circle cx="1245" cy="625" r="75" fill="url(#paint4_linear)"/>
</g>
<g filter="url(#filter6_d)">
<circle cx="1035" cy="625" r="75" fill="url(#paint5_linear)"/>
</g>
<defs>
<filter id="filter0_d" x="55" y="268" width="1338" height="496" filterUnits="userSpaceOnUse" color-interpolation-filters="sRGB">
<feFlood flood-opacity="0" result="BackgroundImageFix"/>
<feColorMatrix in="SourceAlpha" type="matrix" values="0 0 0 0 0 0 0 0 0 0 0 0 0 0 0 0 0 0 127 0"/>
<feOffset dx="4" dy="4"/>
<feGaussianBlur stdDeviation="4"/>
<feColorMatrix type="matrix" values="0 0 0 0 0 0 0 0 0 0 0 0 0 0 0 0 0 0 0.3 0"/>
<feBlend mode="normal" in2="BackgroundImageFix" result="effect1_dropShadow"/>
<feBlend mode="normal" in="SourceGraphic" in2="effect1_dropShadow" result="shape"/>
</filter>
<filter id="filter1_d" x="114" y="550" width="162" height="162" filterUnits="userSpaceOnUse" color-interpolation-filters="sRGB">
<feFlood flood-opacity="0" result="BackgroundImageFix"/>
<feColorMatrix in="SourceAlpha" type="matrix" values="0 0 0 0 0 0 0 0 0 0 0 0 0 0 0 0 0 0 127 0"/>
<feOffset dy="6"/>
<feGaussianBlur stdDeviation="3"/>
<feColorMatrix type="matrix" values="0 0 0 0 0 0 0 0 0 0 0 0 0 0 0 0 0 0 0.25 0"/>
<feBlend mode="normal" in2="BackgroundImageFix" result="effect1_dropShadow"/>
<feBlend mode="normal" in="SourceGraphic" in2="effect1_dropShadow" result="shape"/>
</filter>
<filter id="filter2_d" x="324" y="550" width="162" height="162" filterUnits="userSpaceOnUse" color-interpolation-filters="sRGB">
<feFlood flood-opacity="0" result="BackgroundImageFix"/>
<feColorMatrix in="SourceAlpha" type="matrix" values="0 0 0 0 0 0 0 0 0 0 0 0 0 0 0 0 0 0 127 0"/>
<feOffset dy="6"/>
<feGaussianBlur stdDeviation="3"/>
<feColorMatrix type="matrix" values="0 0 0 0 0 0 0 0 0 0 0 0 0 0 0 0 0 0 0.25 0"/>
<feBlend mode="normal" in2="BackgroundImageFix" result="effect1_dropShadow"/>
<feBlend mode="normal" in="SourceGraphic" in2="effect1_dropShadow" result="shape"/>
</filter>
<filter id="filter3_d" x="534" y="550" width="162" height="162" filterUnits="userSpaceOnUse" color-interpolation-filters="sRGB">
<feFlood flood-opacity="0" result="BackgroundImageFix"/>
<feColorMatrix in="SourceAlpha" type="matrix" values="0 0 0 0 0 0 0 0 0 0 0 0 0 0 0 0 0 0 127 0"/>
<feOffset dy="6"/>
<feGaussianBlur stdDeviation="3"/>
<feColorMatrix type="matrix" values="0 0 0 0 0 0 0 0 0 0 0 0 0 0 0 0 0 0 0.25 0"/>
<feBlend mode="normal" in2="BackgroundImageFix" result="effect1_dropShadow"/>
<feBlend mode="normal" in="SourceGraphic" in2="effect1_dropShadow" result="shape"/>
</filter>
<filter id="filter4_d" x="744" y="550" width="162" height="162" filterUnits="userSpaceOnUse" color-interpolation-filters="sRGB">
<feFlood flood-opacity="0" result="BackgroundImageFix"/>
<feColorMatrix in="SourceAlpha" type="matrix" values="0 0 0 0 0 0 0 0 0 0 0 0 0 0 0 0 0 0 127 0"/>
<feOffset dy="6"/>
<feGaussianBlur stdDeviation="3"/>
<feColorMatrix type="matrix" values="0 0 0 0 0 0 0 0 0 0 0 0 0 0 0 0 0 0 0.25 0"/>
<feBlend mode="normal" in2="BackgroundImageFix" result="effect1_dropShadow"/>
<feBlend mode="normal" in="SourceGraphic" in2="effect1_dropShadow" result="shape"/>
</filter>
<filter id="filter5_d" x="1164" y="550" width="162" height="162" filterUnits="userSpaceOnUse" color-interpolation-filters="sRGB">
<feFlood flood-opacity="0" result="BackgroundImageFix"/>
<feColorMatrix in="SourceAlpha" type="matrix" values="0 0 0 0 0 0 0 0 0 0 0 0 0 0 0 0 0 0 127 0"/>
<feOffset dy="6"/>
<feGaussianBlur stdDeviation="3"/>
<feColorMatrix type="matrix" values="0 0 0 0 0 0 0 0 0 0 0 0 0 0 0 0 0 0 0.25 0"/>
<feBlend mode="normal" in2="BackgroundImageFix" result="effect1_dropShadow"/>
<feBlend mode="normal" in="SourceGraphic" in2="effect1_dropShadow" result="shape"/>
</filter>
<filter id="filter6_d" x="954" y="550" width="162" height="162" filterUnits="userSpaceOnUse" color-interpolation-filters="sRGB">
<feFlood flood-opacity="0" result="BackgroundImageFix"/>
<feColorMatrix in="SourceAlpha" type="matrix" values="0 0 0 0 0 0 0 0 0 0 0 0 0 0 0 0 0 0 127 0"/>
<feOffset dy="6"/>
<feGaussianBlur stdDeviation="3"/>
<feColorMatrix type="matrix" values="0 0 0 0 0 0 0 0 0 0 0 0 0 0 0 0 0 0 0.25 0"/>
<feBlend mode="normal" in2="BackgroundImageFix" result="effect1_dropShadow"/>
<feBlend mode="normal" in="SourceGraphic" in2="effect1_dropShadow" result="shape"/>
</filter>
<linearGradient id="paint0_linear" x1="238.5" y1="567" x2="157.5" y2="686.5" gradientUnits="userSpaceOnUse">
<stop stop-color="#00549E"/>
<stop offset="1" stop-color="white"/>
</linearGradient>
<linearGradient id="paint1_linear" x1="448.5" y1="567" x2="367.5" y2="686.5" gradientUnits="userSpaceOnUse">
<stop stop-color="#00549E"/>
<stop offset="0.848958" stop-color="#85EDEE"/>
</linearGradient>
<linearGradient id="paint2_linear" x1="658.5" y1="567" x2="577.5" y2="686.5" gradientUnits="userSpaceOnUse">
<stop stop-color="#85EDEE"/>
<stop offset="0.9375" stop-color="white"/>
</linearGradient>
<linearGradient id="paint3_linear" x1="868.5" y1="567" x2="787.5" y2="686.5" gradientUnits="userSpaceOnUse">
<stop stop-color="#312F3E"/>
<stop offset="0.9375" stop-color="white"/>
</linearGradient>
<linearGradient id="paint4_linear" x1="1288.5" y1="567" x2="1207.5" y2="686.5" gradientUnits="userSpaceOnUse">
<stop stop-color="#00D37A"/>
<stop offset="1" stop-color="#85EDEE"/>
</linearGradient>
<linearGradient id="paint5_linear" x1="1078.5" y1="567" x2="997.5" y2="686.5" gradientUnits="userSpaceOnUse">
<stop stop-color="#00549E"/>
<stop offset="0.958333" stop-color="#E00F00"/>
</linearGradient>
</defs>
</svg>
